<svg width="37" height="37" viewBox="0 0 37 37" fill="none" xmlns="http://www.w3.org/2000/svg">
<g id="coding_3" clip-path="url(#clip0_1679_586)">
<g id="Group">
<path id="Vector" d="M2.8 1.00017C2.35 1.10017 1.675 1.45017 1.325 1.77517C0.025 3.00017 0 3.12517 0 15.0002C0 27.0752 0 27.0752 1.475 28.3252C2.25 28.9752 2.4 29.0002 5.25 29.0002C7.4 29.0002 8.25 28.9252 8.325 28.6752C8.6 27.8752 8.2 27.7502 5.575 27.7502C3.025 27.7502 2.95 27.7252 2.225 27.0252L1.5 26.3002V19.1502V12.0002H17.25H33V15.5502L32.975 19.1252L32.1 19.5502C31.4 19.8752 31.075 19.9002 30.6 19.7002C30.275 19.5502 30 19.2752 30 19.1252C30 18.9502 29.775 18.5252 29.475 18.1502C29.05 17.6252 28.75 17.5002 27.775 17.5002C26.475 17.5002 25.5 18.0252 25.5 18.7502C25.5 19.0252 25.2 19.3752 24.825 19.5752C24.25 19.8502 24.025 19.8752 23.5 19.6002C22.575 19.1002 22.35 19.1502 21.25 20.1502C20.475 20.8502 20.25 21.2502 20.25 21.8502C20.25 22.3002 20.375 22.7752 20.525 22.9252C20.975 23.3752 20.525 24.2002 19.55 24.6752C18.7 25.0752 18.625 25.2252 18.5 26.3752L18.375 27.6252L16 27.7502C13.775 27.8752 13.625 27.9002 13.55 28.4252C13.475 29.0002 13.475 29.0002 16.875 29.0002H20.25L20.525 29.6752C20.7 30.1752 20.7 30.5002 20.525 30.8002C20.025 31.6252 20.225 32.5252 21.1 33.4002C21.975 34.2752 22.85 34.4752 23.75 34.0002C24.45 33.6252 25.425 34.1502 25.6 35.0252C25.7 35.6002 25.925 35.7752 26.725 36.0002C28.2 36.4002 29.275 36.0502 29.8 35.0002C30.275 34.0752 31.175 33.5752 31.6 34.0002C31.725 34.1252 32.2 34.2502 32.65 34.2502C33.25 34.2502 33.65 34.0252 34.35 33.2502C35.325 32.1752 35.45 31.6252 34.9 30.8752C34.6 30.4502 34.6 30.2752 34.9 29.7002C35.1 29.3002 35.475 29.0002 35.75 29.0002C37 29.0002 37.5 26.0752 36.425 25.0502C36.1 24.7502 35.675 24.5002 35.45 24.5002C34.85 24.5002 34.475 23.4002 34.875 22.8252C35.375 22.1752 35.325 21.4252 34.75 20.6752C34.275 20.0752 34.25 19.6752 34.25 11.9002C34.25 2.87517 34.2 2.52517 32.725 1.47517L31.875 0.875172L17.75 0.825169C9.975 0.800171 3.25 0.875172 2.8 1.00017ZM31.575 2.52517C32.675 3.02517 32.85 3.67517 32.95 7.17517L33.05 10.5002H17.275H1.5V7.10017V3.70017L2.225 2.97517L2.95 2.25017H16.975C26.4 2.25017 31.175 2.35017 31.575 2.52517ZM28.55 19.6752C28.6 20.2252 28.875 20.5002 29.75 20.9252C31.1 21.5752 31.7 21.6252 32.25 21.1252C32.625 20.8002 32.725 20.8002 33.225 21.3502C33.7 21.8502 33.725 21.9502 33.375 22.2502C32.875 22.6752 32.925 23.4002 33.575 24.7502C34 25.6252 34.275 25.9002 34.825 25.9502C35.4 26.0252 35.5 26.1502 35.5 26.8752C35.5 27.6252 35.425 27.7252 34.725 27.8002C34.075 27.8502 33.9 28.0252 33.575 28.8752C32.95 30.6252 32.925 30.7502 33.375 31.2502C33.8 31.7252 33.8 31.7752 33.375 32.2502C32.825 32.8502 32.55 32.8752 31.95 32.3252C31.575 32.0002 31.375 31.9752 30.925 32.2002C30.625 32.3502 29.95 32.6502 29.45 32.8502C28.625 33.1752 28.5 33.3252 28.5 34.0002C28.5 34.7252 28.45 34.7752 27.7 34.7002C27.025 34.6502 26.85 34.5002 26.75 33.9002C26.65 33.3002 26.375 33.0752 25.175 32.5502C23.775 31.9502 23.725 31.9502 23.225 32.4002C22.75 32.8252 22.725 32.8252 22.2 32.3002C21.675 31.7752 21.675 31.7502 22.1 31.2752C22.55 30.7752 22.55 30.7252 21.95 29.3252C21.425 28.1252 21.2 27.8502 20.6 27.7502C20 27.6502 19.85 27.4752 19.8 26.8252C19.725 26.1002 19.775 26.0252 20.525 25.9502C21.25 25.8752 21.4 25.7252 21.95 24.4252L22.575 22.9752L22.025 22.4002L21.5 21.8502L22.125 21.2502C22.725 20.6752 22.75 20.6752 23.25 21.1252C23.75 21.5752 23.8 21.5752 25.2 21.0752C26.475 20.6252 26.625 20.5002 26.7 19.7752C26.775 19.0752 26.875 19.0002 27.625 19.0002C28.35 19.0002 28.475 19.1002 28.55 19.6752Z" fill="white"/>
<path id="Vector_2" d="M5.57547 4.30009C4.85047 4.65009 4.17547 6.12509 4.37547 6.92509C4.97547 9.37509 8.67547 9.35009 9.15047 6.87509C9.50047 4.92509 7.42547 3.40009 5.57547 4.30009ZM7.45047 5.80009C7.90047 6.25009 7.80047 6.95009 7.27547 7.25009C6.65047 7.57509 6.07547 7.35009 5.87547 6.72509C5.57547 5.77509 6.75047 5.10009 7.45047 5.80009Z" fill="white"/>
<path id="Vector_3" d="M11.5 4.7C10.9 5.3 10.75 5.675 10.75 6.5C10.75 7.95 11.575 8.75 13.1 8.75C14.025 8.75 14.3 8.625 14.85 7.975C16.175 6.4 15.375 4.35 13.325 4.075C12.4 3.95 12.2 4.025 11.5 4.7ZM13.875 6.35C13.875 7.4 13.15 7.775 12.475 7.1C11.75 6.375 12.2 5.425 13.2 5.55C13.75 5.6 13.875 5.75 13.875 6.35Z" fill="white"/>
<path id="Vector_4" d="M20.5999 4.25C19.1749 4.825 18.8249 6.725 19.8999 7.975L20.5499 8.75H24.8999H29.2749L29.8749 8.1C30.7749 7.125 30.7249 5.7 29.7749 4.725L29.0499 4L25.0749 4.025C22.8999 4.025 20.8749 4.125 20.5999 4.25ZM28.9499 6.2C29.1249 7.375 28.6999 7.5 24.8999 7.5C22.4749 7.5 21.2499 7.4 21.0499 7.2C20.6499 6.8 20.6749 5.825 21.0749 5.65C21.2249 5.6 23.0749 5.55 25.1249 5.575C28.8249 5.625 28.8749 5.625 28.9499 6.2Z" fill="white"/>
<path id="Vector_5" d="M25.5003 23.0251C23.5503 24.1501 22.7003 26.8751 23.6753 28.7251C25.6253 32.4251 30.9253 31.8751 31.9753 27.8751C32.4503 26.0501 31.7003 24.2251 30.0003 23.0501C28.9003 22.3251 26.7503 22.3001 25.5003 23.0251ZM29.4503 24.4001C29.7753 24.6251 30.2003 25.1751 30.4003 25.6501C30.9253 26.9001 30.6253 28.0751 29.5503 29.0251C28.7503 29.7251 28.5503 29.8001 27.4003 29.6751C26.3503 29.5751 26.0253 29.4251 25.4503 28.7251C23.2503 26.0751 26.5503 22.5001 29.4503 24.4001Z" fill="white"/>
<path id="Vector_6" d="M11.2753 16.3254C10.9253 16.7754 9.52526 22.7504 9.67526 23.1754C9.75026 23.3754 10.0503 23.5004 10.3503 23.4504C10.8003 23.3754 10.9753 22.9504 11.7003 20.0254C12.3253 17.4754 12.4503 16.6004 12.2253 16.3504C11.8753 15.9254 11.6253 15.9004 11.2753 16.3254Z" fill="white"/>
<path id="Vector_7" d="M5.525 17.875C4.8 18.625 4.25 19.45 4.25 19.75C4.25 20.45 6.425 23 7 23C7.25 23 7.525 22.825 7.6 22.6C7.775 22.15 7.575 21.85 6.425 20.6L5.725 19.825L6.725 18.65C7.875 17.325 7.95 17.125 7.275 16.775C6.875 16.55 6.6 16.725 5.525 17.875Z" fill="white"/>
<path id="Vector_8" d="M14.6758 16.8C14.0508 17.125 14.1508 17.4 15.2758 18.625L16.3008 19.75L15.2508 21C14.3758 22.025 14.2508 22.325 14.5008 22.625C14.6758 22.825 14.9508 23 15.1508 23C15.5008 23 18.0008 20.15 18.0008 19.75C18.0008 19.475 15.7508 16.85 15.3508 16.675C15.2258 16.6 14.9008 16.65 14.6758 16.8Z" fill="white"/>
<path id="Vector_9" d="M10.3501 28.125C10.1501 28.6 10.4251 29 11.0001 29C11.4751 29 11.7501 28.575 11.5751 28.05C11.4251 27.625 10.5251 27.675 10.3501 28.125Z" fill="white"/>
</g>
</g>
<defs>
<clipPath id="clip0_1679_586">
<rect width="37" height="37" fill="white"/>
</clipPath>
</defs>
</svg>
