<svg width="52" height="44" viewBox="0 0 52 44" fill="none" xmlns="http://www.w3.org/2000/svg">
<path fill-rule="evenodd" clip-rule="evenodd" d="M6.89025 41.3324L6.845 42.6889L45.1532 42.7063C45.1787 42.5347 45.1952 42.3139 45.1993 42.0835C45.2032 41.8602 45.195 41.6468 45.1768 41.4785L6.89025 41.3324ZM45.1331 41.236L45.1338 41.2377L45.1331 41.236ZM45.1023 42.9382L45.103 42.9365L45.1023 42.9382ZM6.35028 40.7603L6.35236 40.2134L45.6837 40.3635L45.7853 40.4056C45.9422 40.4707 46.0346 40.5826 46.0819 40.6525C46.1321 40.7267 46.1644 40.8024 46.1857 40.8622C46.2287 40.9823 46.2551 41.1168 46.2727 41.2414C46.3088 41.4961 46.3213 41.8062 46.3161 42.103C46.3109 42.4 46.2875 42.7094 46.2431 42.963C46.2214 43.0872 46.191 43.2199 46.1456 43.3375C46.1229 43.3961 46.0897 43.4693 46.0398 43.5407C45.9935 43.607 45.9024 43.716 45.7489 43.7802L45.6454 43.8235L5.69016 43.8053L5.79206 40.751L6.35028 40.7603Z" fill="white"/>
<path d="M48.2909 16.5064C49.1643 16.455 50.2969 20.6951 50.4734 21.5149C50.9939 23.9254 51.1257 26.414 51.0721 28.878C53.3999 27.531 50.6387 31.3644 50.431 31.4046C50.1607 31.4538 48.3221 28.8021 48.8047 28.5787C49.2224 28.3866 49.6826 29.231 49.8747 28.7931C50.1294 25.5137 49.5486 22.2365 48.5902 19.1179C48.4316 18.6019 47.1851 16.5734 48.2909 16.5064Z" fill="white"/>
<path d="M3.51397 16.5073C4.81635 16.418 3.69269 18.1515 3.47153 18.8619C2.43051 22.1838 1.78937 25.4476 2.10213 28.9638C2.13563 29.0286 3.32856 28.1641 3.38664 28.8789C3.40004 29.0375 1.82288 31.4547 1.54587 31.4055C1.34259 31.3675 -1.26442 27.4894 0.775168 28.9236C1.12813 28.8655 0.650066 25.5928 1.41631 21.8599C1.58385 21.0467 2.80805 16.5565 3.51397 16.5096V16.5073Z" fill="white"/>
<path d="M31.083 3.49305C32.1508 3.33444 37.1749 5.42094 38.3589 6.06209C39.0782 6.45079 42.4492 8.43007 42.2549 9.18738C41.9533 10.358 40.2823 8.55741 39.1296 7.86041C34.5746 5.11043 31.2907 4.83788 30.911 4.60779C30.4597 4.33301 30.4954 3.58241 31.083 3.49528V3.49305Z" fill="white"/>
<path fill-rule="evenodd" clip-rule="evenodd" d="M49.3259 12.3516C49.3478 12.4071 49.4074 12.5628 49.3778 12.7449L49.3774 12.7475C49.3541 12.8866 49.2867 12.9995 49.2549 13.0508C49.2126 13.119 49.1612 13.1887 49.1083 13.2555C49.0016 13.39 48.8608 13.5472 48.7029 13.7135C48.3853 14.048 47.9703 14.4487 47.5512 14.8307C47.1324 15.2123 46.7002 15.5838 46.3474 15.8578C46.1726 15.9935 46.0062 16.1141 45.8649 16.2008C45.7957 16.2433 45.7171 16.2872 45.6372 16.32C45.5971 16.3364 45.5436 16.3556 45.4817 16.3679C45.4259 16.379 45.3214 16.3935 45.1991 16.3627C45.0936 16.3362 44.9982 16.2792 44.9247 16.199C44.5716 15.8135 44.181 15.4482 43.7928 15.0917C43.7464 15.0491 43.6998 15.0065 43.6533 14.9638C43.3184 14.657 42.9847 14.3512 42.7074 14.0601C42.3988 13.7361 42.1029 13.3734 41.9578 12.9842C41.8818 12.7804 41.8407 12.553 41.8725 12.3129C41.9048 12.0695 42.0072 11.8489 42.1638 11.6555C42.2569 11.5409 42.4895 11.3125 42.7466 11.0678C43.0182 10.8092 43.3565 10.4956 43.6928 10.1904C44.0287 9.88552 44.3658 9.58619 44.6348 9.35699C44.7686 9.2429 44.8899 9.14256 44.9875 9.0666C45.0358 9.02899 45.0838 8.99314 45.1276 8.96331L45.1299 8.96173C45.1574 8.94301 45.237 8.88869 45.331 8.85735L45.3338 8.85642C45.6366 8.75725 45.9272 8.87757 46.077 8.95021C46.2623 9.04008 46.4561 9.17199 46.6427 9.31651C47.0197 9.60847 47.4424 10.0112 47.8313 10.4199C48.222 10.8304 48.5934 11.2626 48.867 11.6219C49.0027 11.8002 49.1223 11.9709 49.2089 12.1181C49.2515 12.1906 49.2941 12.2708 49.3259 12.3516ZM45.6342 9.97332C45.717 10.0186 45.8268 10.0917 45.9615 10.196C46.2763 10.4399 46.6557 10.7983 47.0254 11.1868C47.3935 11.5736 47.7374 11.9747 47.9818 12.2958C48.0746 12.4177 48.1486 12.5221 48.2028 12.606C48.1271 12.6978 48.0237 12.8132 47.8961 12.9475C47.6023 13.257 47.2078 13.6384 46.8018 14.0084C46.3954 14.3788 45.9867 14.7293 45.665 14.9792C45.5858 15.0406 45.5146 15.0939 45.452 15.1388C45.1499 14.831 44.8382 14.5413 44.5453 14.2723C44.4976 14.2286 44.4506 14.1855 44.4043 14.143C44.065 13.832 43.7621 13.5544 43.513 13.2928C43.2226 12.9879 43.0621 12.7615 43.0002 12.5955C42.9727 12.5218 42.9726 12.4801 42.9754 12.4589C42.9778 12.4413 42.9856 12.4086 43.0279 12.3561M48.2908 12.7593C48.2946 12.7689 48.2928 12.7668 48.2891 12.7552C48.2899 12.757 48.2908 12.7593 48.2908 12.7593ZM45.528 9.92584C45.528 9.92584 45.531 9.92616 45.5377 9.92837C45.5315 9.92721 45.528 9.92584 45.528 9.92584Z" fill="white"/>
<path fill-rule="evenodd" clip-rule="evenodd" d="M28.3811 0.703318C28.4306 0.721847 28.5781 0.777941 28.6908 0.913375C28.7692 1.00759 28.8142 1.12506 28.819 1.24753C28.8491 2.02267 28.8926 2.65803 28.93 3.20385C28.9503 3.5002 28.9688 3.77015 28.9823 4.02174C29.001 4.36808 29.0099 4.67922 28.995 4.95022C28.9802 5.2188 28.9406 5.4828 28.8418 5.72035C28.737 5.97207 28.5712 6.18042 28.3341 6.33212C28.1095 6.4758 27.8506 6.54957 27.5851 6.59095C27.0709 6.6711 26.3603 6.6513 25.4532 6.61906C24.816 6.59614 24.2883 6.57581 23.9142 6.46509C23.7085 6.40424 23.5022 6.30447 23.3354 6.12645C23.1673 5.94714 23.0832 5.73525 23.0396 5.52827C22.9672 5.18465 22.9868 4.72243 23.009 4.19796C23.0106 4.16035 23.0122 4.12243 23.0138 4.0842C23.039 3.47667 23.0694 2.6835 23.0338 1.62967C23.0333 1.61509 23.0334 1.6005 23.0341 1.58592C23.0511 1.20711 23.2311 0.920997 23.4869 0.73597C23.7038 0.579169 23.9543 0.509317 24.1444 0.471096C24.1525 0.469166 24.1607 0.467408 24.169 0.465828C24.2265 0.454833 24.2917 0.451834 24.322 0.450437C24.3668 0.448373 24.4225 0.446845 24.4839 0.44581C24.6072 0.443729 24.7689 0.443274 24.955 0.444584C25.3276 0.447206 25.8064 0.456967 26.286 0.475931C26.7636 0.494815 27.2512 0.523172 27.6375 0.563949C27.8289 0.584149 28.0091 0.608773 28.1556 0.640009C28.2278 0.655405 28.3069 0.675525 28.3811 0.703318ZM24.3606 1.56241C24.3028 1.57419 24.2548 1.58705 24.2156 1.60103C24.1811 1.61335 24.1595 1.62442 24.147 1.63206C24.1819 2.70857 24.1505 3.52241 24.1253 4.13033C24.0983 4.78194 24.0871 5.10374 24.1282 5.299C24.1363 5.3376 24.1442 5.35739 24.1483 5.36582C24.1572 5.37145 24.1806 5.38375 24.2298 5.39831C24.4365 5.45947 24.7942 5.48214 25.4927 5.50725C26.4398 5.54092 27.0282 5.55183 27.4138 5.49172C27.5982 5.46298 27.6894 5.42388 27.7346 5.39499C27.7672 5.37411 27.7908 5.35016 27.8147 5.29289C27.8444 5.22147 27.8726 5.09979 27.8842 4.88904C27.8956 4.68071 27.8896 4.41886 27.8714 4.08158C27.8595 3.85929 27.842 3.60282 27.8223 3.31411C27.7909 2.85372 27.7538 2.31133 27.7247 1.69476C27.6645 1.68649 27.5964 1.67829 27.5207 1.6703C27.1703 1.63331 26.7108 1.6061 26.2421 1.58756C25.7753 1.56911 25.3085 1.5596 24.9472 1.55706C24.7663 1.55579 24.614 1.55627 24.5026 1.55815C24.4466 1.5591 24.4038 1.56035 24.3742 1.56172C24.3688 1.56196 24.3643 1.5622 24.3606 1.56241Z" fill="white"/>
<path fill-rule="evenodd" clip-rule="evenodd" d="M21.2004 3.91859C21.2767 4.21617 21.0973 4.51926 20.7997 4.59556C17.0914 5.54636 13.5061 7.03445 10.5992 9.49017C10.3645 9.68842 10.0136 9.65889 9.81531 9.42421C9.61706 9.18954 9.64659 8.83858 9.88127 8.64033C12.9613 6.03839 16.7212 4.49278 20.5234 3.51792C20.821 3.44162 21.1241 3.621 21.2004 3.91859Z" fill="white"/>
<path fill-rule="evenodd" clip-rule="evenodd" d="M25.9649 15.2089C26.0522 15.2423 26.1718 15.2953 26.3249 15.3697C26.6483 15.5268 27.0814 15.7599 27.5974 16.0502C28.6274 16.6299 29.9541 17.4189 31.3276 18.2391C31.4802 18.3302 31.6334 18.4217 31.7867 18.5134C33.0105 19.2445 34.247 19.9832 35.3117 20.5988C36.493 21.2818 37.5089 21.8407 38.059 22.0556M38.318 22.1448C38.4572 22.1891 38.616 22.2269 38.7877 22.2399C39.094 22.263 39.3611 22.0334 39.3842 21.7271C39.4074 21.4207 39.1778 21.1536 38.8714 21.1305C38.8081 21.1257 38.736 21.1105 38.6528 21.0839L38.6446 21.0814C38.5805 21.0619 38.5218 21.0422 38.466 21.0202L38.4644 21.0196C38.0102 20.8422 37.074 20.3326 35.8685 19.6356C34.8113 19.0244 33.5823 18.2902 32.3573 17.5583C32.204 17.4667 32.0508 17.3752 31.898 17.284C30.5271 16.4653 29.1877 15.6686 28.143 15.0807C27.6215 14.7872 27.1651 14.5411 26.811 14.369C26.6349 14.2835 26.474 14.2113 26.3377 14.1605C26.2697 14.1351 26.1986 14.1116 26.129 14.0948C26.0691 14.0802 25.9669 14.0595 25.8527 14.0696C25.7886 14.0753 25.7259 14.0921 25.6675 14.1192C24.1605 14.8191 22.1342 16.0369 20.1005 17.2592C19.7545 17.4672 19.4083 17.6752 19.0644 17.8809C16.6587 19.3197 14.388 20.6267 12.9444 21.0909L12.9388 21.0927C12.8883 21.1096 12.8334 21.1214 12.7416 21.1403L12.7352 21.1416C12.7134 21.1464 12.7024 21.1468 12.6992 21.1468C12.392 21.1468 12.143 21.3959 12.143 21.7031C12.143 22.0103 12.392 22.2593 12.6992 22.2593C12.7973 22.2593 12.8878 22.2467 12.9679 22.2295L12.9744 22.2282C13.0557 22.2115 13.1696 22.1882 13.2876 22.1491C14.8799 21.6364 17.2725 20.2489 19.6354 18.8357C19.9857 18.6262 20.3359 18.4158 20.6839 18.2067C22.6453 17.0282 24.5354 15.8925 25.9649 15.2089M38.318 22.1448L38.322 22.146L38.4833 21.6137L38.3138 22.1435L38.318 22.1448Z" fill="white"/>
<path fill-rule="evenodd" clip-rule="evenodd" d="M10.5837 39.0684L9.22446 39.107L9.15916 40.5061C9.14484 40.8129 8.88446 41.0501 8.57758 41.0358C8.27071 41.0214 8.03355 40.7611 8.04787 40.4542L8.13723 38.5397C8.1508 38.249 8.38617 38.0179 8.67708 38.0096L10.5648 37.956C10.5732 37.9557 10.5817 37.9557 10.5901 37.9558C15.4773 38.0398 20.3704 37.9906 25.2723 37.9413C25.5138 37.9388 25.7552 37.9364 25.9967 37.934C31.1381 37.8826 36.2886 37.8384 41.4347 37.9559M10.5837 39.0684C15.4822 39.1523 20.385 39.103 25.2789 39.0538C25.5219 39.0513 25.7649 39.0489 26.0078 39.0465C31.1508 38.9951 36.2841 38.9511 41.4096 39.0681C41.4875 39.0699 41.6561 39.0671 41.8538 39.0638C42.0426 39.0606 42.2581 39.057 42.4471 39.0565C42.5649 39.0562 42.6771 39.0569 42.7779 39.0592L42.8097 40.4924C42.8165 40.7996 43.071 41.043 43.3781 41.0362C43.6852 41.0294 43.9287 40.7749 43.9219 40.4678L43.8795 38.5533C43.8764 38.4141 43.8212 38.2811 43.7248 38.1806C43.6195 38.0708 43.497 38.0303 43.4627 38.019C43.4088 38.0011 43.3568 37.9906 43.3172 37.9838C43.2363 37.97 43.1448 37.962 43.0576 37.9568C42.8797 37.946 42.6592 37.9435 42.4442 37.944C42.2017 37.9447 41.9764 37.9488 41.7957 37.9521C41.632 37.9551 41.5046 37.9575 41.4347 37.9559" fill="white"/>
<path fill-rule="evenodd" clip-rule="evenodd" d="M30.6378 36.7537C27.5555 36.7469 24.4714 36.7447 21.3877 36.7536L21.386 36.7537C21.119 36.7537 20.8528 36.7534 20.5869 36.7532C20.0567 36.7527 19.528 36.7522 18.9975 36.7536M30.6402 35.6411C27.5572 35.6344 24.4713 35.6322 21.3853 35.6411C21.1207 35.6411 20.8559 35.6409 20.5908 35.6407C20.0592 35.6402 19.5268 35.6397 18.9942 35.6412C17.5174 35.6459 16.053 35.6438 14.5873 35.6417C13.253 35.6398 11.9175 35.6379 10.5702 35.6411C10.4144 35.6415 10.266 35.7072 10.1609 35.8222L9.99557 36.0032C9.89172 36.1169 9.83963 36.2685 9.85172 36.422C9.87188 36.6781 9.88601 36.9353 9.90055 37.2C9.90166 37.2202 9.90277 37.2405 9.9039 37.2609C9.91951 37.5445 9.93612 37.8363 9.96155 38.1288C9.98816 38.4349 10.2578 38.6614 10.5639 38.6348C10.87 38.6082 11.0965 38.3385 11.0699 38.0324C11.0462 37.7597 11.0304 37.4841 11.0147 37.1997C11.0136 37.1787 11.0124 37.1576 11.0112 37.1365C11.0043 37.0101 10.9973 36.8819 10.9895 36.7528C12.1799 36.7509 13.3788 36.7525 14.5788 36.7542C16.0548 36.7563 17.5325 36.7583 18.9975 36.7536M33.0255 36.7536C34.494 36.7583 35.9757 36.7563 37.4558 36.7542C38.6525 36.7525 39.8482 36.7509 41.0352 36.7528C41.0214 36.8944 41.008 37.0356 40.9948 37.1758L40.9946 37.1772C40.9678 37.4614 40.9413 37.7419 40.9115 38.0218C40.879 38.3273 41.1004 38.6013 41.4059 38.6338C41.7113 38.6662 41.9853 38.4449 42.0178 38.1394C42.0483 37.8524 42.0754 37.5659 42.1021 37.2832L42.1022 37.2818C42.1291 36.9976 42.1556 36.7171 42.1853 36.4371C42.2017 36.2827 42.1529 36.1285 42.0505 36.0117L41.8919 35.8307C41.7866 35.7106 41.6347 35.6415 41.4749 35.6411C40.1245 35.6379 38.7853 35.6398 37.4473 35.6417C35.9775 35.6438 34.5091 35.6459 33.0288 35.6412C32.4961 35.6397 31.9632 35.6402 31.4322 35.6407C31.1677 35.6409 30.9037 35.6411 30.6402 35.6411M33.0255 36.7536C32.4948 36.7522 31.9658 36.7527 31.4361 36.7532C31.1707 36.7534 30.9051 36.7537 30.639 36.7537H30.6378" fill="white"/>
<path fill-rule="evenodd" clip-rule="evenodd" d="M36.9473 26.3091C37.2545 26.3091 37.5035 26.5581 37.5035 26.8653V35.7698C37.5035 36.0771 37.2545 36.3261 36.9473 36.3261C36.6401 36.3261 36.391 36.0771 36.391 35.7698V26.8653C36.391 26.5581 36.6401 26.3091 36.9473 26.3091Z" fill="white"/>
<path fill-rule="evenodd" clip-rule="evenodd" d="M33.0078 26.2251C33.315 26.2251 33.5641 26.4741 33.5641 26.7813V35.7708C33.5641 36.078 33.315 36.327 33.0078 36.327C32.7006 36.327 32.4516 36.078 32.4516 35.7708V26.7813C32.4516 26.4741 32.7006 26.2251 33.0078 26.2251Z" fill="white"/>
<path fill-rule="evenodd" clip-rule="evenodd" d="M10.92 23.9127C11.2272 23.9127 11.4763 24.1617 11.4763 24.4689V25.7544C13.2841 25.8305 15.0897 25.8338 16.9085 25.8372C17.6027 25.8384 18.2988 25.8397 18.9977 25.8451C19.5249 25.8495 20.0499 25.848 20.5782 25.8465C20.844 25.8458 21.1108 25.845 21.3793 25.845L21.3814 25.845C21.6686 25.8461 21.957 25.8434 22.2497 25.8406L22.2515 25.8406M23.1325 25.8361C25.1757 25.8416 27.2188 25.8336 29.264 25.8256C29.7186 25.8239 30.1732 25.8221 30.628 25.8205C30.9895 25.8195 31.3437 25.8202 31.6958 25.821C32.1328 25.822 32.5672 25.823 33.0105 25.8205C33.2601 25.8189 33.829 25.8252 34.5508 25.8332C35.3276 25.8418 36.2807 25.8523 37.2015 25.8571C38.0965 25.8617 38.9655 25.8609 39.631 25.8479C39.9646 25.8414 40.2408 25.832 40.4411 25.8192C40.4701 25.8173 40.4968 25.8155 40.5213 25.8136C40.5299 25.7398 40.5343 25.6447 40.5336 25.5284C40.5326 25.3632 40.5219 25.1879 40.511 25.0143L40.5094 24.9902C40.4998 24.8372 40.4889 24.6648 40.4931 24.5338C40.5029 24.2268 40.7598 23.9858 41.0668 23.9956C41.3739 24.0054 41.6149 24.2623 41.6051 24.5693C41.6028 24.6414 41.6098 24.7609 41.6213 24.9446L41.6214 24.9459C41.632 25.1146 41.6449 25.3204 41.6461 25.5216C41.6473 25.7181 41.6381 25.945 41.5915 26.1497C41.5514 26.3255 41.4476 26.6512 41.1263 26.8159L41.1252 26.8165C41.0496 26.855 40.9766 26.8723 40.9424 26.8798C40.8985 26.8895 40.8532 26.8967 40.811 26.9023C40.726 26.9136 40.6237 26.9223 40.512 26.9294C40.287 26.9438 39.9916 26.9536 39.6526 26.9602C38.9729 26.9734 38.0927 26.9742 37.1958 26.9695C36.2515 26.9647 35.2936 26.954 34.5208 26.9454C33.8144 26.9375 33.2627 26.9314 33.0172 26.933C32.577 26.9354 32.1285 26.9345 31.6831 26.9335M10.92 23.9127C10.6128 23.9127 10.3638 24.1617 10.3638 24.4689L10.92 23.9127ZM10.3638 24.4689V26.1042V24.4689ZM40.4974 25.9371C40.4949 25.9445 40.4932 25.9473 40.4932 25.9473C40.4932 25.9473 40.4943 25.9432 40.4974 25.9371ZM10.6844 26.6702L10.5102 26.4803C10.416 26.3777 10.3638 26.2434 10.3638 26.1042M16.9284 26.9498C14.9825 26.9462 13.0221 26.9426 11.0678 26.8497C10.9214 26.8427 10.7836 26.7782 10.6844 26.6702M16.9284 26.9498C17.6174 26.951 18.3046 26.9523 18.989 26.9575L16.9284 26.9498ZM18.989 26.9575C19.5221 26.962 20.0578 26.9605 20.5899 26.959C20.8538 26.9583 21.1169 26.9575 21.3782 26.9575" fill="white"/>
<path fill-rule="evenodd" clip-rule="evenodd" d="M30.6113 26.2251C30.9185 26.2251 31.1676 26.4741 31.1676 26.7813V35.7708C31.1676 36.078 30.9185 36.327 30.6113 36.327C30.3041 36.327 30.0551 36.078 30.0551 35.7708V26.7813C30.0551 26.4741 30.3041 26.2251 30.6113 26.2251Z" fill="white"/>
<path fill-rule="evenodd" clip-rule="evenodd" d="M27.1875 26.3091C27.4947 26.3091 27.7438 26.5581 27.7438 26.8653V35.7698C27.7438 36.0771 27.4947 36.3261 27.1875 36.3261C26.8803 36.3261 26.6312 36.0771 26.6312 35.7698V26.8653C26.6312 26.5581 26.8803 26.3091 27.1875 26.3091Z" fill="white"/>
<path fill-rule="evenodd" clip-rule="evenodd" d="M24.791 26.3091C25.0982 26.3091 25.3473 26.5581 25.3473 26.8653V35.7698C25.3473 36.0771 25.0982 36.3261 24.791 36.3261C24.4838 36.3261 24.2348 36.0771 24.2348 35.7698V26.8653C24.2348 26.5581 24.4838 26.3091 24.791 26.3091Z" fill="white"/>
<path fill-rule="evenodd" clip-rule="evenodd" d="M21.3714 26.3091C21.6786 26.3124 21.925 26.564 21.9218 26.8712C21.9062 28.3498 21.9117 29.8298 21.9184 31.3142C21.9188 31.3969 21.9192 31.4795 21.9196 31.5622C21.9259 32.9633 21.9324 34.3685 21.9218 35.774C21.9195 36.0812 21.6686 36.3284 21.3614 36.3261C21.0542 36.3238 20.807 36.0729 20.8093 35.7657C20.8198 34.3671 20.8135 32.9681 20.8071 31.5655C20.8067 31.4834 20.8063 31.4014 20.8059 31.3193C20.7992 29.8354 20.7936 28.3476 20.8093 26.8595C20.8126 26.5523 21.0642 26.3059 21.3714 26.3091Z" fill="white"/>
<path fill-rule="evenodd" clip-rule="evenodd" d="M15.0293 26.3091C15.3365 26.3091 15.5855 26.5581 15.5855 26.8653V35.7698C15.5855 36.0771 15.3365 36.3261 15.0293 36.3261C14.7221 36.3261 14.473 36.0771 14.473 35.7698V26.8653C14.473 26.5581 14.7221 26.3091 15.0293 26.3091Z" fill="white"/>
<path fill-rule="evenodd" clip-rule="evenodd" d="M25.6832 11.2944C25.8584 11.1846 26.0802 11.181 26.2589 11.2852L43.134 21.128C43.2705 21.2076 43.3667 21.3415 43.3986 21.4962L43.9236 24.0429C43.9575 24.2075 43.9152 24.3786 43.8084 24.5085C43.7017 24.6383 43.542 24.7129 43.3739 24.7114C43.0047 24.7082 42.6375 24.6928 42.2809 24.6778L42.2118 24.6749C41.8303 24.659 41.4603 24.6444 41.0916 24.6444C38.094 24.6464 35.0903 24.662 32.0836 24.6777C25.041 24.7142 17.9826 24.7509 10.9512 24.613L10.9497 24.613C10.7836 24.6093 10.6159 24.6122 10.4355 24.6153C10.4135 24.6157 10.3912 24.6161 10.3688 24.6164C10.1678 24.6198 9.95187 24.6224 9.73516 24.6126L9.73289 24.6125C9.6091 24.6064 9.47777 24.6131 9.31495 24.623C9.30489 24.6236 9.29468 24.6243 9.28433 24.6249C9.13736 24.6339 8.96235 24.6447 8.78625 24.6397C8.74014 24.6384 8.69436 24.6314 8.64997 24.6188C8.47831 24.5701 8.37718 24.4582 8.33947 24.4133C8.29107 24.3556 8.25616 24.2959 8.23179 24.2487C8.18207 24.1524 8.14249 24.0416 8.11152 23.9313C8.04859 23.7071 8.00316 23.4197 8.00051 23.1091C7.99535 22.5033 8.15599 21.6833 8.83292 21.1274C9.01018 20.9816 9.37035 20.7479 9.82783 20.4659C10.2992 20.1753 10.9101 19.8116 11.6163 19.3983C13.0291 18.5712 14.8336 17.5391 16.6871 16.483C17.2251 16.1765 17.7669 15.8682 18.3043 15.5623C21.4797 13.7551 24.5012 12.0354 25.6832 11.2944ZM25.9868 12.4145C24.6315 13.2415 21.7934 14.8566 18.8511 16.5312C18.314 16.8368 17.7735 17.1445 17.2378 17.4497C15.3841 18.5058 13.5848 19.535 12.1783 20.3584C11.4749 20.7701 10.8724 21.1289 10.4116 21.4129C9.93725 21.7053 9.6468 21.8984 9.53968 21.9866C9.2317 22.2394 9.1092 22.6573 9.11297 23.0997C9.11432 23.2573 9.13206 23.4018 9.1557 23.5181C9.18021 23.5167 9.20545 23.5151 9.2315 23.5135L9.24724 23.5126C9.40463 23.503 9.59336 23.4918 9.78632 23.5013C9.96474 23.5093 10.1495 23.5074 10.3503 23.5041C10.3721 23.5037 10.3943 23.5033 10.4166 23.5029C10.594 23.4999 10.7845 23.4966 10.974 23.5008C17.9906 23.6383 25.0263 23.6018 32.0623 23.5652C35.0722 23.5496 38.0822 23.5339 41.0908 23.5319C41.486 23.5319 41.8781 23.5475 42.2582 23.5634L42.3228 23.5661C42.4472 23.5713 42.5702 23.5765 42.6925 23.5811L42.3591 21.9639L25.9868 12.4145Z" fill="white"/>
<path fill-rule="evenodd" clip-rule="evenodd" d="M39.3438 26.2251C39.651 26.2251 39.9 26.4741 39.9 26.7813V35.7708C39.9 36.078 39.651 36.327 39.3438 36.327C39.0365 36.327 38.7875 36.078 38.7875 35.7708V26.7813C38.7875 26.4741 39.0365 26.2251 39.3438 26.2251Z" fill="white"/>
<path fill-rule="evenodd" clip-rule="evenodd" d="M12.6328 26.2251C12.94 26.2251 13.1891 26.4741 13.1891 26.7813V35.7708C13.1891 36.078 12.94 36.327 12.6328 36.327C12.3256 36.327 12.0766 36.078 12.0766 35.7708V26.7813C12.0766 26.4741 12.3256 26.2251 12.6328 26.2251Z" fill="white"/>
<path fill-rule="evenodd" clip-rule="evenodd" d="M42.7556 21.0884L42.7609 21.0884L42.9351 21.0884C43.2423 21.0884 43.4914 21.3374 43.4914 21.6446C43.4914 21.9518 43.2423 22.2009 42.9351 22.2009H42.7635C42.2917 22.2053 41.8188 22.2105 41.3453 22.2157C40.3928 22.2261 39.4379 22.2366 38.4855 22.2411L38.4829 22.2411H38.228C29.8652 22.2791 21.49 22.3103 13.126 22.259H12.7795C12.0896 22.2538 11.3907 22.2402 10.6957 22.2267C10.1953 22.217 9.69704 22.2073 9.20575 22.2009H9.03516C8.72795 22.2009 8.4789 21.9518 8.4789 21.6446C8.4789 21.3374 8.72795 21.0884 9.03516 21.0884H9.21671C9.72657 21.0951 10.2301 21.1049 10.7316 21.1147C11.4163 21.128 12.0973 21.1413 12.7858 21.1465H13.1311C21.4895 21.1978 29.8596 21.1666 38.2235 21.1286L38.226 21.1286L38.4814 21.1286C39.43 21.1241 40.3784 21.1137 41.3283 21.1033C41.8036 21.0981 42.2793 21.0929 42.7556 21.0884Z" fill="white"/>
<path fill-rule="evenodd" clip-rule="evenodd" d="M18.9772 26.3092C19.2844 26.3145 19.529 26.5678 19.5237 26.875C19.4982 28.3505 19.5076 29.8284 19.5188 31.3134C19.5193 31.3882 19.5199 31.4629 19.5205 31.5377C19.5311 32.9466 19.5419 34.362 19.5238 35.777C19.5198 36.0842 19.2676 36.33 18.9604 36.326C18.6533 36.3221 18.4074 36.0699 18.4114 35.7627C18.4293 34.3594 18.4187 32.9545 18.408 31.5429C18.4074 31.4692 18.4069 31.3955 18.4063 31.3218C18.3951 29.8379 18.3856 28.3469 18.4114 26.8557C18.4167 26.5485 18.67 26.3038 18.9772 26.3092Z" fill="white"/>
<path fill-rule="evenodd" clip-rule="evenodd" d="M6.23253 9.92129L3.68521 12.5822L6.47068 15.1544C6.91296 14.7347 7.31248 14.3735 7.65257 14.0661C7.86462 13.8744 8.05356 13.7036 8.21538 13.5525C8.47099 13.3138 8.65948 13.1244 8.79346 12.962C8.9286 12.7983 8.98226 12.6925 9.00201 12.6252C9.01962 12.5652 9.05292 12.4388 8.72029 12.0601C8.38291 11.676 7.79992 11.1812 6.88676 10.4282C6.87343 10.4173 6.85831 10.4048 6.84163 10.3911C6.72541 10.2952 6.53323 10.1368 6.34183 9.99808C6.30326 9.97013 6.26669 9.94445 6.23253 9.92129ZM2.54601 13.0445L6.10096 16.3272C6.31825 16.5279 6.65459 16.5234 6.86646 16.317C7.44919 15.7494 7.94478 15.3017 8.37065 14.9169C8.58962 14.7191 8.79016 14.5379 8.97465 14.3657C9.23762 14.1201 9.46972 13.8905 9.65158 13.6701C9.83227 13.4511 9.98968 13.2104 10.0695 12.9385C10.251 12.3202 9.97067 11.7978 9.55613 11.3259C9.14639 10.8594 8.48217 10.3018 7.59397 9.56945L7.59286 9.56854C7.58163 9.55933 7.56807 9.54813 7.55246 9.53524C7.43897 9.44157 7.21717 9.25849 6.99459 9.09721C6.86924 9.00638 6.72741 8.91045 6.59345 8.83875C6.52726 8.80332 6.44655 8.76483 6.35995 8.73783C6.29033 8.71613 6.1319 8.67347 5.95149 8.72212C5.85353 8.74854 5.76466 8.80124 5.69451 8.87453L2.51877 12.1919C2.4034 12.2956 2.33437 12.4451 2.33437 12.6056V12.6079C2.33437 12.781 2.41457 12.9408 2.54601 13.0445Z" fill="white"/>
</svg>
