<svg width="47" height="47" viewBox="0 0 47 47" fill="none" xmlns="http://www.w3.org/2000/svg">
<g id="Simplification">
<path id="Vector" d="M8.69206 3.16979C8.82775 3.16945 8.96345 3.16904 9.09914 3.16855C9.47007 3.16745 9.841 3.16746 10.2119 3.16768C10.6128 3.16772 11.0136 3.16671 11.4144 3.16586C12.199 3.16436 12.9836 3.16386 13.7682 3.16375C14.4064 3.16367 15.0445 3.1633 15.6826 3.16272C17.4937 3.16113 19.3049 3.16029 21.116 3.16043C21.2135 3.16043 21.3111 3.16044 21.4116 3.16045C21.5093 3.16046 21.607 3.16046 21.7076 3.16047C23.2898 3.16055 24.8719 3.15881 26.4541 3.15626C28.0805 3.15365 29.707 3.15241 31.3334 3.15256C32.2458 3.15262 33.1582 3.15213 34.0705 3.15018C34.8475 3.14852 35.6244 3.14814 36.4013 3.14936C36.7972 3.14995 37.1931 3.14997 37.5891 3.1484C37.9525 3.14696 38.3158 3.14724 38.6792 3.14881C38.8097 3.14908 38.9402 3.14877 39.0708 3.14775C40.9521 3.13405 42.5721 3.68945 43.9352 5.01302C45.047 6.1931 45.5655 7.60749 45.564 9.2099C45.5644 9.33802 45.5644 9.33802 45.5648 9.46872C45.5656 9.75459 45.5657 10.0404 45.5658 10.3263C45.5663 10.5314 45.5667 10.7366 45.5672 10.9417C45.5684 11.4988 45.569 12.056 45.5694 12.6131C45.5696 12.9614 45.57 13.3098 45.5704 13.6581C45.5715 14.6238 45.5725 15.5895 45.5728 16.5552C45.5728 16.617 45.5728 16.6787 45.5728 16.7424C45.5728 16.8043 45.5729 16.8662 45.5729 16.9299C45.5729 17.0553 45.573 17.1807 45.573 17.3061C45.573 17.3684 45.573 17.4306 45.5731 17.4946C45.5734 18.5015 45.575 19.5083 45.5771 20.5151C45.5793 21.5505 45.5804 22.5858 45.5805 23.6212C45.5806 24.2018 45.5811 24.7825 45.5827 25.3631C45.5842 25.9097 45.5844 26.4563 45.5836 27.0029C45.5836 27.2029 45.5839 27.4029 45.5848 27.6028C45.5937 29.7041 45.2517 31.3443 43.7294 32.9087C42.5712 34.0029 41.034 34.5614 39.4537 34.5389C39.3736 34.5385 39.2934 34.5382 39.2109 34.5378C38.9452 34.5364 38.6795 34.5336 38.4137 34.531C38.222 34.5297 38.0304 34.5286 37.8387 34.5275C37.4271 34.5252 37.0154 34.5224 36.6038 34.5194C35.9513 34.5148 35.2989 34.5127 34.6464 34.5113C34.536 34.5111 34.4256 34.5108 34.3118 34.5106C34.0861 34.5101 33.8604 34.5096 33.6346 34.5091C32.1168 34.5059 30.599 34.5013 29.0812 34.4884C28.0558 34.4797 27.0305 34.4755 26.005 34.4765C25.4634 34.4768 24.922 34.475 24.3804 34.4675C23.87 34.4605 23.36 34.4596 22.8496 34.4631C22.6637 34.4633 22.4779 34.4614 22.2921 34.4571C20.862 34.4257 20.0337 34.8291 18.933 35.7324C18.6941 35.9258 18.4456 36.098 18.1911 36.2701C18.1137 36.3239 18.0363 36.3777 17.9566 36.4332C17.8805 36.4861 17.8044 36.5389 17.726 36.5934C17.5499 36.7158 17.3739 36.8382 17.1979 36.9605C17.1103 37.0214 17.0227 37.0823 16.9324 37.1451C16.497 37.4477 16.0618 37.7506 15.6265 38.0534C15.4529 38.1741 15.2794 38.2949 15.1059 38.4156C15.0199 38.4754 14.934 38.5351 14.8455 38.5967C13.8911 39.2607 12.9366 39.9247 11.9821 40.5886C11.853 40.6784 11.853 40.6784 11.7214 40.7701C11.5492 40.8898 11.3771 41.0095 11.2049 41.1291C10.7491 41.446 10.2938 41.7635 9.8391 42.0819C9.74409 42.1483 9.64908 42.2147 9.5512 42.2832C9.36867 42.4108 9.18628 42.5386 9.00404 42.6666C8.92199 42.7239 8.83994 42.7812 8.7554 42.8402C8.68331 42.8907 8.61121 42.9413 8.53693 42.9933C8.3377 43.1239 8.3377 43.1239 7.97552 43.305C7.97552 40.4067 7.97552 37.5083 7.97552 34.5222C7.58709 34.4923 7.19865 34.4624 6.79845 34.4317C5.24506 34.1141 3.97202 33.2012 3.043 31.93C2.26591 30.7206 1.98543 29.4837 1.9869 28.064C1.98664 27.9819 1.98637 27.8998 1.98609 27.8152C1.98531 27.5415 1.98517 27.2679 1.98503 26.9943C1.98461 26.7975 1.98416 26.6006 1.98367 26.4038C1.98248 25.8701 1.9819 25.3363 1.98149 24.8026C1.98123 24.4686 1.98086 24.1347 1.98045 23.8008C1.97922 22.7546 1.97834 21.7085 1.97799 20.6624C1.97758 19.4573 1.976 18.2522 1.97337 17.0471C1.97141 16.1139 1.9705 15.1808 1.97038 14.2476C1.97029 13.6911 1.96976 13.1345 1.96813 12.578C1.96663 12.054 1.96645 11.53 1.96724 11.0059C1.96731 10.8145 1.96692 10.6231 1.96602 10.4316C1.9564 8.25504 2.28735 6.48669 3.83879 4.84643C5.20822 3.53553 6.85641 3.16542 8.69206 3.16979ZM5.40634 7.06476C4.73359 7.96991 4.61117 8.8883 4.61329 9.98591C4.61308 10.065 4.61288 10.144 4.61267 10.2254C4.6121 10.4886 4.61217 10.7518 4.61224 11.015C4.61197 11.2044 4.61166 11.3938 4.61132 11.5832C4.61052 12.0965 4.61031 12.6099 4.61025 13.1232C4.61019 13.4442 4.60999 13.7652 4.60975 14.0862C4.60892 15.2069 4.60854 16.3276 4.60862 17.4483C4.60867 18.4917 4.60771 19.535 4.60628 20.5784C4.6051 21.4753 4.60462 22.3722 4.60467 23.2692C4.6047 23.8043 4.60444 24.3395 4.60348 24.8747C4.6026 25.3782 4.6026 25.8817 4.60326 26.3852C4.60335 26.5695 4.60314 26.7538 4.60259 26.9381C4.59864 28.3566 4.62963 29.5384 5.46293 30.742C6.13373 31.4128 6.86375 31.7413 7.79443 31.8964C8.7207 31.8964 9.64696 31.8964 10.6013 31.8964C10.6013 33.988 10.6013 36.0796 10.6013 38.2345C11.0949 37.9571 11.0949 37.9571 11.5605 37.6502C11.6454 37.5897 11.6454 37.5897 11.7321 37.5279C11.7922 37.4847 11.8523 37.4415 11.9142 37.397C12.0507 37.2998 12.1872 37.2026 12.3237 37.1055C12.3964 37.0538 12.4691 37.0021 12.544 36.9489C12.9548 36.6581 13.3683 36.3712 13.7816 36.0841C13.8695 36.023 13.9574 35.9619 14.048 35.899C14.2279 35.774 14.4078 35.649 14.5878 35.524C15.0247 35.2205 15.4614 34.9166 15.8981 34.6128C16.4356 34.2388 16.9732 33.8649 17.5109 33.4912C17.6047 33.426 17.6985 33.3608 17.7951 33.2937C17.9739 33.1694 18.1528 33.0451 18.3317 32.9209C18.4128 32.8645 18.494 32.808 18.5776 32.7499C18.6483 32.7008 18.719 32.6517 18.7918 32.6011C19.01 32.4536 19.01 32.4536 19.1536 32.3269C19.5937 31.9681 19.934 31.9225 20.4911 31.9309C20.6145 31.9301 20.6145 31.9301 20.7403 31.9292C21.0149 31.9279 21.2893 31.9297 21.5639 31.9316C21.7612 31.9313 21.9584 31.9307 22.1557 31.93C22.5801 31.9289 23.0044 31.9292 23.4288 31.9306C24.1005 31.9328 24.7721 31.9318 25.4438 31.9303C26.5673 31.9282 27.6907 31.9285 28.8142 31.9296C28.9041 31.9297 28.9041 31.9297 28.9958 31.9298C29.0858 31.9298 29.0858 31.9298 29.1775 31.9299C30.8978 31.9315 32.6181 31.9309 34.3384 31.9279C35.0054 31.9269 35.6725 31.9273 36.3395 31.9288C36.7554 31.9296 37.1714 31.9292 37.5873 31.9285C37.7794 31.9284 37.9716 31.9288 38.1637 31.9297C39.5973 31.9361 40.843 31.924 41.9468 30.8969C42.7004 30.1114 42.9393 29.2566 42.9382 28.1916C42.9385 28.1091 42.9387 28.0266 42.939 27.9416C42.9398 27.6646 42.9399 27.3875 42.9401 27.1105C42.9405 26.9121 42.9409 26.7137 42.9414 26.5153C42.9426 25.9757 42.9432 25.4362 42.9436 24.8966C42.9439 24.5595 42.9442 24.2223 42.9446 23.8852C42.9459 22.8302 42.9468 21.7752 42.9471 20.7203C42.9471 20.5989 42.9472 20.4775 42.9472 20.3561C42.9472 20.2959 42.9473 20.2357 42.9473 20.1736C42.9476 19.1988 42.9492 18.224 42.9513 17.2492C42.9535 16.2475 42.9546 15.2458 42.9547 14.2441C42.9548 13.6821 42.9553 13.12 42.957 12.558C42.9585 12.029 42.9586 11.5 42.9579 10.971C42.9578 10.7772 42.9582 10.5834 42.9591 10.3896C42.9602 10.1242 42.9597 9.85894 42.9587 9.59361C42.9595 9.51758 42.9602 9.44155 42.961 9.36321C42.9526 8.35369 42.6093 7.53473 41.926 6.79772C41.1641 6.06954 40.3243 5.80909 39.2809 5.80788C39.1685 5.80753 39.0561 5.80718 38.9402 5.80683C38.8162 5.8069 38.6921 5.80698 38.5681 5.80706C38.4357 5.80683 38.3034 5.80656 38.171 5.80625C37.8077 5.80552 37.4444 5.80536 37.0811 5.80529C36.6891 5.80512 36.2971 5.80444 35.9051 5.80383C35.0481 5.8026 34.1911 5.80205 33.3341 5.80165C32.7988 5.8014 32.2636 5.80102 31.7283 5.80061C30.2459 5.79951 28.7635 5.79858 27.2811 5.79827C27.1863 5.79825 27.0915 5.79823 26.9937 5.79821C26.8987 5.79819 26.8036 5.79817 26.7056 5.79815C26.513 5.79811 26.3203 5.79807 26.1277 5.79803C25.9844 5.798 25.9844 5.798 25.8381 5.79797C24.2899 5.79761 22.7416 5.79603 21.1934 5.79392C19.6033 5.79177 18.0132 5.79065 16.4231 5.79054C15.5305 5.79046 14.6379 5.78994 13.7454 5.78829C12.9853 5.7869 12.2252 5.78644 11.4652 5.78718C11.0776 5.78754 10.69 5.78745 10.3024 5.78618C9.9471 5.78502 9.59183 5.78514 9.23655 5.78623C9.10847 5.78641 8.98039 5.78613 8.85231 5.78534C7.51076 5.77758 6.31079 5.9998 5.40634 7.06476Z" fill="white"/>
<path id="Vector_2" d="M13.6797 23.0229C20.3727 23.0229 27.0657 23.0229 33.9615 23.0229C33.9615 23.8895 33.9615 24.756 33.9615 25.6487C27.2685 25.6487 20.5755 25.6487 13.6797 25.6487C13.6797 24.7822 13.6797 23.9157 13.6797 23.0229Z" fill="white"/>
<path id="Vector_3" d="M13.6797 17.5903C20.3727 17.5903 27.0657 17.5903 33.9615 17.5903C33.9615 18.4568 33.9615 19.3233 33.9615 20.2161C27.2685 20.2161 20.5755 20.2161 13.6797 20.2161C13.6797 19.3496 13.6797 18.4831 13.6797 17.5903Z" fill="white"/>
<path id="Vector_4" d="M13.6797 12.1577C20.3727 12.1577 27.0657 12.1577 33.9615 12.1577C33.9615 13.0242 33.9615 13.8907 33.9615 14.7835C27.2685 14.7835 20.5755 14.7835 13.6797 14.7835C13.6797 13.917 13.6797 13.0505 13.6797 12.1577Z" fill="white"/>
</g>
</svg>
