<svg width="673" height="501" viewBox="0 0 673 501" fill="none" xmlns="http://www.w3.org/2000/svg">
<mask id="mask0_547_1570" style="mask-type:luminance" maskUnits="userSpaceOnUse" x="-55" y="0" width="751" height="501">
<path d="M695.5 0.115234H-54.5V500.115H695.5V0.115234Z" fill="white"/>
</mask>
<g mask="url(#mask0_547_1570)">
<path d="M498.731 164.637H425.321L388.611 228.217L425.321 291.787H498.731L535.441 228.217L498.731 164.637Z" fill="#55A2C3" style="mix-blend-mode:soft-light"/>
<path d="M498.948 27.1211L498.876 26.9961H498.731H425.321H425.177L425.105 27.1211L388.395 90.7011L388.323 90.8261L388.395 90.9511L425.105 154.531L425.177 154.656H425.321H498.731H498.876L498.948 154.531L535.658 90.9511L535.73 90.8261L535.658 90.7011L498.948 27.1211Z" stroke="url(#paint0_linear_547_1570)" stroke-width="0.5"/>
<path d="M735.087 162.621L735.014 162.496H734.87H661.46H661.316L661.244 162.621L624.533 226.201L624.461 226.326L624.534 226.451L661.244 290.021L661.316 290.146H661.46H734.87H735.014L735.086 290.021L771.797 226.451L771.869 226.326L771.797 226.201L735.087 162.621Z" stroke="url(#paint1_linear_547_1570)" stroke-width="0.5"/>
<path d="M617.547 -37.9688L617.475 -38.0938H617.331H543.921H543.777L543.704 -37.9688L506.994 25.6112L506.922 25.7363L506.994 25.8613L543.704 89.4413L543.777 89.5662H543.921H617.331H617.475L617.547 89.4413L654.257 25.8613L654.33 25.7363L654.257 25.6112L617.547 -37.9688Z" stroke="url(#paint2_linear_547_1570)" stroke-width="0.5"/>
<path d="M735.087 25.9414L735.014 25.8164H734.87H661.46H661.316L661.244 25.9414L624.533 89.5214L624.461 89.6464L624.533 89.7714L661.244 153.351L661.316 153.476H661.46H734.87H735.014L735.087 153.351L771.797 89.7714L771.869 89.6464L771.797 89.5214L735.087 25.9414Z" stroke="url(#paint3_linear_547_1570)" stroke-width="0.5"/>
<path d="M617.547 368.15L617.475 368.025H617.331H543.921H543.777L543.704 368.15L506.994 431.73L506.922 431.855L506.994 431.98L543.704 495.55L543.777 495.675H543.921H617.331H617.475L617.547 495.55L654.257 431.98L654.33 431.855L654.257 431.73L617.547 368.15Z" stroke="url(#paint4_linear_547_1570)" stroke-width="0.5"/>
<path d="M258.266 162.621L258.194 162.496H258.05H184.64H184.495L184.423 162.621L147.713 226.201L147.641 226.326L147.713 226.451L184.423 290.021L184.495 290.146H184.64H258.05H258.194L258.266 290.021L294.976 226.451L295.048 226.326L294.976 226.201L258.266 162.621Z" stroke="url(#paint5_linear_547_1570)" stroke-width="0.5"/>
<path d="M258.266 440.531L258.194 440.406H258.05H184.64H184.495L184.423 440.531L147.713 504.101L147.641 504.226L147.713 504.351L184.423 567.931L184.495 568.056H184.64H258.05H258.194L258.266 567.931L294.976 504.351L295.048 504.226L294.976 504.101L258.266 440.531Z" stroke="url(#paint6_linear_547_1570)" stroke-width="0.5"/>
<path d="M498.948 436.32L498.876 436.195H498.731H425.321H425.177L425.105 436.32L388.395 499.9L388.323 500.025L388.395 500.15L425.105 563.73L425.177 563.855H425.321H498.731H498.876L498.948 563.73L535.658 500.15L535.73 500.025L535.658 499.9L498.948 436.32Z" stroke="url(#paint7_linear_547_1570)" stroke-width="0.5"/>
<path d="M617.547 230.762L617.475 230.637H617.331H543.921H543.777L543.704 230.762L506.994 294.342L506.922 294.467L506.994 294.592L543.704 358.172L543.777 358.297H543.921H617.331H617.475L617.547 358.172L654.257 294.592L654.33 294.467L654.257 294.342L617.547 230.762Z" stroke="url(#paint8_linear_547_1570)" stroke-width="0.5"/>
<path d="M735.086 439.82L735.014 439.695H734.87H661.46H661.316L661.244 439.82L624.534 503.39L624.461 503.515L624.533 503.64L661.244 567.22L661.316 567.345H661.46H734.87H735.014L735.087 567.22L771.797 503.64L771.869 503.515L771.797 503.39L735.086 439.82Z" stroke="url(#paint9_linear_547_1570)" stroke-width="0.5"/>
<path d="M380.358 370.07L380.286 369.945H380.142H306.721H306.577L306.505 370.07L269.805 433.65L269.733 433.775L269.805 433.9L306.505 497.48L306.577 497.605H306.721H380.142H380.286L380.358 497.48L417.058 433.9L417.13 433.775L417.058 433.65L380.358 370.07Z" stroke="url(#paint10_linear_547_1570)" stroke-width="0.5"/>
<path d="M140.647 370.07L140.575 369.945H140.431H67.0206H66.8762L66.8041 370.07L30.094 433.65L30.0219 433.775L30.094 433.9L66.8041 497.48L66.8762 497.605H67.0206H140.431H140.575L140.647 497.48L177.357 433.9L177.429 433.775L177.357 433.65L140.647 370.07Z" stroke="url(#paint11_linear_547_1570)" stroke-width="0.5"/>
<path d="M380.142 97.707H306.721L270.021 161.287L306.721 224.857H380.142L416.841 161.287L380.142 97.707Z" fill="#55A2C3" style="mix-blend-mode:soft-light"/>
<path d="M616.28 96.5254H542.86L506.16 160.095L542.86 223.675H616.28L652.98 160.095L616.28 96.5254Z" fill="#55A2C3" style="mix-blend-mode:soft-light"/>
<path d="M498.731 301.346H425.321L388.611 364.916L425.321 428.496H498.731L535.441 364.916L498.731 301.346Z" fill="#55A2C3" style="mix-blend-mode:soft-light"/>
<path d="M258.05 301.346H184.64L147.93 364.916L184.64 428.496H258.05L294.76 364.916L258.05 301.346Z" fill="#55A2C3" style="mix-blend-mode:soft-light"/>
<path d="M734.87 300.637H661.46L624.75 364.217L661.46 427.787H734.87L771.58 364.217L734.87 300.637Z" fill="#55A2C3" style="mix-blend-mode:soft-light"/>
<path d="M380.142 233.957H306.721L270.021 297.527L306.721 361.107H380.142L416.841 297.527L380.142 233.957Z" fill="#55A2C3" style="mix-blend-mode:soft-light"/>
</g>
<path d="M341.931 137.455C331.591 137.455 323.211 145.835 323.211 156.175C323.211 163.505 327.431 169.855 333.571 172.925V182.425C333.571 185.975 335.741 189.015 338.821 190.295H338.521V193.105H345.681V190.155C348.601 188.805 350.631 185.855 350.631 182.425V172.755C356.591 169.625 360.661 163.375 360.661 156.175C360.661 145.835 352.281 137.455 341.941 137.455H341.931Z" fill="white" stroke="white" stroke-width="3.51" stroke-linecap="round" stroke-linejoin="round"/>
<path d="M333.561 174.016H350.621" stroke="url(#paint12_linear_547_1570)" stroke-width="1.5" stroke-linecap="round" stroke-linejoin="round"/>
<path d="M333.561 176.105L350.621 177.915" stroke="url(#paint13_linear_547_1570)" stroke-width="1.5" stroke-linecap="round" stroke-linejoin="round"/>
<path d="M333.561 178.625L350.621 180.435" stroke="url(#paint14_linear_547_1570)" stroke-width="1.5" stroke-linecap="round" stroke-linejoin="round"/>
<path d="M333.561 181.135L350.621 182.945" stroke="url(#paint15_linear_547_1570)" stroke-width="1.5" stroke-linecap="round" stroke-linejoin="round"/>
<path d="M333.561 183.654L350.081 185.404" stroke="url(#paint16_linear_547_1570)" stroke-width="1.5" stroke-linecap="round" stroke-linejoin="round"/>
<path d="M334.48 186.266L348.73 187.776" stroke="url(#paint17_linear_547_1570)" stroke-width="1.5" stroke-linecap="round" stroke-linejoin="round"/>
<path d="M336.68 189.016L346 190.006" stroke="url(#paint18_linear_547_1570)" stroke-width="1.5" stroke-linecap="round" stroke-linejoin="round"/>
<path d="M342.091 160.205C343.181 160.205 344.071 161.095 344.071 162.185V174.015H340.111V162.185C340.111 161.095 341.001 160.205 342.091 160.205Z" stroke="url(#paint19_linear_547_1570)" stroke-width="1.5" stroke-linecap="round" stroke-linejoin="round"/>
<path d="M342.09 162.484V174.014" stroke="url(#paint20_linear_547_1570)" stroke-width="1.5" stroke-linecap="round" stroke-linejoin="round"/>
<path d="M340.11 163.556L332.74 152.816C338.62 148.776 344.83 148.526 351.44 152.816L344.07 163.556" stroke="url(#paint21_linear_547_1570)" stroke-width="1.5" stroke-linecap="round" stroke-linejoin="round"/>
<path d="M457.62 259.604C458.6 260.724 460.35 260.724 461.33 259.604L480.86 237.274C483.64 234.364 485.3 230.364 485.11 225.974C484.77 218.164 478.45 211.744 470.64 211.304C466.34 211.064 462.4 212.584 459.48 215.214C456.39 212.444 452.17 210.894 447.6 211.364C440.28 212.114 434.45 218.104 433.88 225.434C433.54 229.824 435.04 233.854 437.7 236.844L437.72 236.864C437.72 236.864 437.8 236.964 437.85 237.014L457.63 259.614L457.62 259.604Z" fill="white" stroke="white" stroke-width="3.06" stroke-linecap="round" stroke-linejoin="round"/>
<path d="M456.981 220.354C462.441 223.534 465.201 227.884 465.181 233.894C466.471 233.214 466.851 232.114 467.181 230.724C468.461 232.634 469.301 234.544 469.851 236.574C471.121 241.294 470.381 245.504 466.311 248.764C465.501 249.414 464.531 249.864 463.531 250.314C465.501 248.424 466.391 246.204 465.591 243.664C465.191 242.374 464.381 241.144 463.541 240.034C462.111 238.154 460.891 236.244 460.831 233.564C457.491 236.334 456.771 239.724 457.121 243.504C455.751 243.114 455.261 242.314 454.931 239.974C452.441 242.464 452.561 246.764 455.401 250.284C452.871 249.254 451.121 247.734 449.961 245.644C447.971 242.044 448.131 238.424 450.131 234.874C450.741 233.794 451.501 232.774 452.311 231.824C455.101 228.554 457.261 225.044 456.971 220.334L456.981 220.354Z" stroke="url(#paint22_linear_547_1570)" stroke-width="1.5" stroke-linecap="round" stroke-linejoin="round"/>
<path d="M218.151 389.555C219.131 390.675 220.881 390.675 221.861 389.555L241.391 367.225C244.171 364.315 245.831 360.315 245.641 355.925C245.301 348.115 238.981 341.695 231.171 341.255C226.871 341.015 222.931 342.535 220.011 345.165C216.921 342.395 212.701 340.845 208.131 341.315C200.811 342.065 194.981 348.055 194.411 355.385C194.071 359.775 195.571 363.805 198.231 366.795L198.251 366.815C198.251 366.815 198.331 366.915 198.381 366.965L218.161 389.565L218.151 389.555Z" fill="white" stroke="white" stroke-width="3.06" stroke-linecap="round" stroke-linejoin="round"/>
<path d="M207.721 373.274L210.301 370.834L208.861 354.814C208.861 354.814 213.061 354.234 213.511 357.404C213.961 360.574 214.751 363.514 217.691 360.224C220.631 356.934 224.481 352.494 224.481 352.494C224.481 352.494 225.951 350.584 227.881 352.304C229.811 354.024 228.121 355.624 228.121 355.624L230.801 352.634C230.801 352.634 231.711 351.414 233.331 352.864C234.951 354.314 233.871 355.384 233.871 355.384L233.151 356.184C233.151 356.184 233.861 355.464 235.241 356.704C236.771 358.074 235.571 359.644 235.571 359.644L233.601 361.844C233.601 361.844 234.891 360.404 236.561 361.894C238.101 363.274 236.371 365.204 236.371 365.204L223.601 379.464C223.601 379.464 221.011 381.624 219.121 381.234L216.501 383.304" stroke="url(#paint23_linear_547_1570)" stroke-width="1.5" stroke-linecap="round" stroke-linejoin="round"/>
<path d="M233.811 361.664L227.631 368.554" stroke="url(#paint24_linear_547_1570)" stroke-width="1.5" stroke-linecap="round" stroke-linejoin="round"/>
<path d="M233.081 356.125L224.471 365.735" stroke="url(#paint25_linear_547_1570)" stroke-width="1.5" stroke-linecap="round" stroke-linejoin="round"/>
<path d="M228.12 355.625L221.91 362.565" stroke="url(#paint26_linear_547_1570)" stroke-width="1.5" stroke-linecap="round" stroke-linejoin="round"/>
<path d="M367.41 312.575L357.58 298.115C360.74 294.715 362.52 290.205 362.52 285.555C362.52 275.385 354.24 267.105 344.07 267.105C333.9 267.105 325.62 275.385 325.62 285.555C325.62 290.305 327.45 294.765 330.57 298.115L320.73 312.585C320.41 313.065 320.38 313.685 320.66 314.185C320.94 314.685 321.47 314.995 322.06 314.975L331.54 314.585L334.67 323.545C334.86 324.095 335.34 324.485 335.91 324.555C335.98 324.555 336.04 324.565 336.11 324.565C336.61 324.565 337.09 324.315 337.37 323.895L344.07 314.045L350.76 323.895C351.05 324.315 351.52 324.565 352.02 324.565C352.09 324.565 352.15 324.565 352.22 324.555C352.79 324.475 353.27 324.085 353.46 323.545L356.59 314.585L366.07 314.975C366.65 315.005 367.19 314.695 367.47 314.185C367.75 313.675 367.72 313.065 367.4 312.585L367.41 312.575Z" fill="white" stroke="white" stroke-width="3.06" stroke-linecap="round" stroke-linejoin="round"/>
<path d="M344.07 302.465C353.415 302.465 360.99 294.89 360.99 285.545C360.99 276.2 353.415 268.625 344.07 268.625C334.726 268.625 327.15 276.2 327.15 285.545C327.15 294.89 334.726 302.465 344.07 302.465Z" stroke="url(#paint27_linear_547_1570)" stroke-width="1.5" stroke-linecap="round" stroke-linejoin="round"/>
<path d="M344.07 295.545C349.593 295.545 354.07 291.068 354.07 285.545C354.07 280.022 349.593 275.545 344.07 275.545C338.547 275.545 334.07 280.022 334.07 285.545C334.07 291.068 338.547 295.545 344.07 295.545Z" stroke="url(#paint28_linear_547_1570)" stroke-width="1.5" stroke-linecap="round" stroke-linejoin="round"/>
<path d="M337.121 301.086L352.031 323.026L355.531 312.996L366.151 313.436L355.611 297.926" stroke="url(#paint29_linear_547_1570)" stroke-width="1.5" stroke-linecap="round" stroke-linejoin="round"/>
<path d="M344.07 311.316L336.11 323.026L332.61 312.996L321.99 313.436L332.54 297.926" stroke="url(#paint30_linear_547_1570)" stroke-width="1.5" stroke-linecap="round" stroke-linejoin="round"/>
<path d="M489.75 370.335V370.315C489.75 370.285 489.73 370.255 489.72 370.225C489.71 370.185 489.7 370.155 489.69 370.115L479.98 347.795C479.98 347.795 479.98 347.785 479.97 347.775C479.93 347.695 479.89 347.625 479.84 347.565C479.83 347.545 479.81 347.525 479.8 347.515C479.74 347.445 479.68 347.385 479.6 347.335C479.6 347.335 479.59 347.335 479.58 347.325C479.51 347.285 479.44 347.245 479.36 347.225C479.34 347.225 479.32 347.215 479.3 347.205C479.21 347.185 479.12 347.165 479.03 347.165H463.26C463.54 346.605 463.7 345.975 463.7 345.315C463.7 343.005 461.82 341.125 459.51 341.125C457.2 341.125 455.32 343.005 455.32 345.315C455.32 345.975 455.48 346.605 455.76 347.165H439.99C439.89 347.165 439.8 347.185 439.72 347.205C439.7 347.205 439.68 347.215 439.66 347.225C439.58 347.255 439.51 347.285 439.44 347.325C439.44 347.325 439.43 347.325 439.42 347.335C439.35 347.385 439.28 347.445 439.22 347.515C439.2 347.535 439.19 347.555 439.18 347.565C439.13 347.635 439.08 347.705 439.05 347.775C439.05 347.775 439.05 347.785 439.04 347.795L429.33 370.115C429.32 370.145 429.31 370.185 429.3 370.225C429.3 370.255 429.28 370.285 429.27 370.315C429.27 370.315 429.27 370.325 429.27 370.335C429.26 370.395 429.25 370.465 429.25 370.525C429.25 376.455 434.08 381.285 440.01 381.285C445.94 381.285 450.77 376.455 450.77 370.525C450.77 370.465 450.77 370.405 450.75 370.335V370.315C450.75 370.285 450.73 370.255 450.72 370.225C450.71 370.185 450.7 370.155 450.69 370.115L441.62 349.275H458.17C458.27 349.315 458.38 349.345 458.49 349.375V386.405H451.93C451.35 386.405 450.88 386.875 450.88 387.455C450.88 388.035 451.35 388.505 451.93 388.505H467.16C467.74 388.505 468.21 388.035 468.21 387.455C468.21 386.875 467.74 386.405 467.16 386.405H460.6V349.375C460.71 349.345 460.81 349.315 460.92 349.275H477.47L468.4 370.115C468.39 370.145 468.38 370.185 468.37 370.225C468.37 370.255 468.35 370.285 468.34 370.315C468.34 370.315 468.34 370.325 468.34 370.335C468.33 370.395 468.32 370.465 468.32 370.525C468.32 376.455 473.15 381.285 479.08 381.285C485.01 381.285 489.84 376.455 489.84 370.525C489.84 370.465 489.84 370.405 489.82 370.335H489.75Z" fill="white" stroke="white" stroke-width="3.06" stroke-linecap="round" stroke-linejoin="round"/>
<path d="M479.011 380.235C484.371 380.235 488.721 375.885 488.721 370.525H469.311C469.311 375.885 473.661 380.235 479.021 380.235H479.011Z" stroke="url(#paint31_linear_547_1570)" stroke-width="1.5" stroke-linecap="round" stroke-linejoin="round"/>
<path d="M439.95 380.235C445.31 380.235 449.66 375.885 449.66 370.525H430.25C430.25 375.885 434.6 380.235 439.96 380.235H439.95Z" stroke="url(#paint32_linear_547_1570)" stroke-width="1.5" stroke-linecap="round" stroke-linejoin="round"/>
<path d="M430.24 370.525L439.95 348.215L449.65 370.525" stroke="url(#paint33_linear_547_1570)" stroke-width="1.5" stroke-linecap="round" stroke-linejoin="round"/>
<path d="M469.301 370.525L479.011 348.215L488.721 370.525" stroke="url(#paint34_linear_547_1570)" stroke-width="1.5" stroke-linecap="round" stroke-linejoin="round"/>
<path d="M479.011 348.215H439.951" stroke="url(#paint35_linear_547_1570)" stroke-width="1.5" stroke-linecap="round" stroke-linejoin="round"/>
<path d="M459.48 348.215V387.445" stroke="url(#paint36_linear_547_1570)" stroke-width="1.5" stroke-linecap="round" stroke-linejoin="round"/>
<path d="M451.861 387.445H467.091" stroke="url(#paint37_linear_547_1570)" stroke-width="1.5" stroke-linecap="round" stroke-linejoin="round"/>
<path d="M459.48 348.444C461.214 348.444 462.62 347.038 462.62 345.304C462.62 343.57 461.214 342.164 459.48 342.164C457.746 342.164 456.34 343.57 456.34 345.304C456.34 347.038 457.746 348.444 459.48 348.444Z" stroke="url(#paint38_linear_547_1570)" stroke-width="1.5" stroke-linecap="round" stroke-linejoin="round"/>
<path d="M602.4 156.684L590.26 143.394C589.7 142.774 588.74 142.724 588.12 143.284L581.98 148.704L572.64 147.614L563.91 143.074C563.32 142.764 562.59 142.874 562.12 143.354L549.73 155.744C549.43 156.044 549.27 156.454 549.28 156.874C549.29 157.294 549.48 157.694 549.8 157.974L553.81 161.504C554.21 165.014 557.32 168.984 557.69 169.454C557.72 169.494 557.76 169.534 557.79 169.574L561.64 173.474C561.7 173.544 561.76 173.624 561.83 173.684L562.48 174.334L562 174.814C560.73 176.084 560.44 178.354 562.65 180.564C563.58 181.494 564.56 182.034 565.55 182.164C566.07 182.234 566.57 182.184 567.04 182.034L567.43 182.424C569.05 184.044 571.55 184.244 573.39 183.024L573.65 183.284C574.44 184.074 575.48 184.464 576.52 184.464C577.56 184.464 578.55 184.094 579.33 183.344L598.02 165.474C598.23 165.274 598.38 165.024 598.45 164.744L599.39 160.974L602.17 158.964C602.52 158.704 602.75 158.314 602.8 157.884C602.85 157.454 602.7 157.014 602.41 156.694L602.4 156.684Z" fill="white" stroke="white" stroke-width="3.06" stroke-linecap="round" stroke-linejoin="round"/>
<path d="M558.881 168.496C558.881 168.496 555.291 164.006 555.291 160.776L550.801 156.826L563.191 144.436L572.171 149.106L589.051 151.086C589.051 151.086 589.951 155.576 585.281 155.216L580.611 154.856C580.611 154.856 576.841 163.116 567.141 158.086" stroke="url(#paint39_linear_547_1570)" stroke-width="1.5" stroke-linecap="round" stroke-linejoin="round"/>
<path d="M585.65 147.476L589.13 144.426" stroke="url(#paint40_linear_547_1570)" stroke-width="1.5" stroke-linecap="round" stroke-linejoin="round"/>
<path d="M601.271 157.715L598.041 160.045L596.961 164.355L578.271 182.225C577.281 183.175 575.701 183.155 574.731 182.185L573.461 180.915L573.051 181.325C571.801 182.575 569.771 182.575 568.511 181.325L567.291 180.105C566.481 180.915 565.161 180.915 563.721 179.475C562.281 178.035 562.261 176.705 563.071 175.895L564.631 174.335L562.901 172.605C561.791 171.495 561.791 169.705 562.901 168.595L567.711 163.785" stroke="url(#paint41_linear_547_1570)" stroke-width="1.5" stroke-linecap="round" stroke-linejoin="round"/>
<path d="M573.75 165.225L564 174.975" stroke="url(#paint42_linear_547_1570)" stroke-width="1.5" stroke-linecap="round" stroke-linejoin="round"/>
<path d="M579.051 168.494L566.971 180.574" stroke="url(#paint43_linear_547_1570)" stroke-width="1.5" stroke-linecap="round" stroke-linejoin="round"/>
<path d="M582.451 171.895L573.451 180.905" stroke="url(#paint44_linear_547_1570)" stroke-width="1.5" stroke-linecap="round" stroke-linejoin="round"/>
<path d="M612.04 305.755L609.21 299.725C610.91 296.835 611.8 293.575 611.8 290.195C611.8 279.805 603.35 271.355 592.96 271.355C589.42 271.355 586.03 272.335 583.04 274.195C580.06 272.335 576.66 271.355 573.13 271.355C562.74 271.355 554.29 279.805 554.29 290.195C554.29 293.565 555.18 296.835 556.88 299.725L554.05 305.755C553.64 306.635 553.82 307.675 554.5 308.355C555.18 309.045 556.22 309.225 557.1 308.825L563.03 306.085C566.06 308.015 569.52 309.035 573.12 309.035C576.72 309.035 580.05 308.055 583.03 306.195C586.01 308.055 589.41 309.035 592.95 309.035C596.49 309.035 600.02 308.015 603.04 306.085L608.97 308.825C609.28 308.965 609.61 309.035 609.94 309.035C610.54 309.035 611.13 308.795 611.57 308.355C612.25 307.665 612.43 306.625 612.02 305.755H612.04Z" fill="url(#paint45_linear_547_1570)" stroke="url(#paint46_linear_547_1570)" stroke-width="3.06" stroke-linecap="round" stroke-linejoin="round"/>
<path d="M583.35 277.194C580.54 274.984 576.99 273.664 573.14 273.664C564.01 273.664 556.61 281.064 556.61 290.194C556.61 293.674 557.69 296.894 559.52 299.554L556.15 306.734L563.27 303.444C566.03 305.504 569.43 306.734 573.14 306.734C576.85 306.734 580.45 305.454 583.24 303.294" stroke="white" stroke-width="1.54" stroke-miterlimit="10"/>
<path d="M606.591 299.554C608.421 296.894 609.501 293.674 609.501 290.194C609.501 281.064 602.101 273.664 592.971 273.664C583.841 273.664 576.441 281.064 576.441 290.194C576.441 299.324 583.841 306.724 592.971 306.724C596.671 306.724 600.081 305.494 602.841 303.434L609.961 306.724L606.591 299.544V299.554ZM602.251 285.064L588.191 299.124C587.901 299.414 587.511 299.574 587.101 299.574C586.691 299.574 586.301 299.414 586.011 299.124L581.931 295.044C581.331 294.444 581.331 293.474 581.931 292.874C582.531 292.274 583.501 292.274 584.101 292.874L587.091 295.864L600.071 282.884C600.671 282.284 601.641 282.284 602.241 282.884C602.841 283.484 602.841 284.454 602.241 285.054L602.251 285.064Z" fill="white" stroke="white" stroke-width="1.54" stroke-miterlimit="10"/>
<path d="M489.251 88.7649C490.091 88.5749 490.691 87.8249 490.691 86.9649V78.0449C490.691 76.7349 489.631 75.6749 488.321 75.6749H480.641C479.621 73.9449 477.601 72.7949 475.341 72.7949C473.081 72.7949 471.061 73.9449 470.041 75.6749H462.361C462.211 75.6749 462.071 75.6849 461.931 75.7149C461.791 75.6849 461.641 75.6749 461.481 75.6749H452.581C451.721 75.6749 450.971 76.2749 450.781 77.1149C450.611 77.8549 449.721 78.6249 448.511 78.6249C447.301 78.6249 446.411 77.8649 446.241 77.1149C446.051 76.2749 445.301 75.6749 444.441 75.6749H435.521C434.211 75.6749 433.151 76.7349 433.151 78.0449V85.7249C431.421 86.7449 430.271 88.7649 430.271 91.0249C430.271 93.2849 431.421 95.3049 433.151 96.3249V104.005C433.151 105.315 434.211 106.375 435.521 106.375H444.441C445.301 106.375 446.051 105.775 446.241 104.935C446.411 104.195 447.301 103.425 448.511 103.425C449.721 103.425 450.611 104.195 450.781 104.935C450.971 105.775 451.721 106.375 452.581 106.375H461.481C461.631 106.375 461.781 106.355 461.931 106.335C462.071 106.365 462.211 106.375 462.361 106.375H470.041C471.061 108.105 473.081 109.255 475.341 109.255C477.601 109.255 479.621 108.105 480.641 106.375H488.321C489.631 106.375 490.691 105.315 490.691 104.005V95.1049C490.691 94.2449 490.091 93.4949 489.251 93.3049C488.511 93.1349 487.741 92.2449 487.741 91.0349C487.741 89.8249 488.501 88.9349 489.251 88.7649Z" fill="url(#paint47_linear_547_1570)" stroke="url(#paint48_linear_547_1570)" stroke-width="3.69" stroke-linecap="round" stroke-linejoin="round"/>
<path d="M462.001 95.0954C463.641 94.7254 464.881 93.0354 464.881 91.0254C464.881 89.0154 463.641 87.3354 462.001 86.9554V78.0454C462.001 77.7554 461.771 77.5254 461.481 77.5254H452.581C452.211 79.1654 450.521 80.4654 448.511 80.4654C446.501 80.4654 444.821 79.1654 444.441 77.5254H435.521C435.231 77.5254 435.001 77.7554 435.001 78.0454V86.9554C433.361 87.3254 432.121 89.0154 432.121 91.0254C432.121 93.0354 433.361 94.7154 435.001 95.0954V104.005C435.001 104.295 435.231 104.525 435.521 104.525H444.441C444.811 102.885 446.501 101.585 448.511 101.585C450.521 101.585 452.201 102.885 452.581 104.525H461.481C461.771 104.525 462.001 104.295 462.001 104.005V95.0954Z" stroke="white" stroke-width="1.85" stroke-miterlimit="10"/>
<path d="M471.27 104.525C471.64 106.165 473.33 107.405 475.34 107.405C477.35 107.405 479.03 106.165 479.41 104.525H488.32C488.61 104.525 488.84 104.295 488.84 104.005V95.1045C487.2 94.7345 485.9 93.0445 485.9 91.0345C485.9 89.0245 487.2 87.3445 488.84 86.9645V78.0445C488.84 77.7545 488.61 77.5245 488.32 77.5245H479.41C479.04 75.8845 477.35 74.6445 475.34 74.6445C473.33 74.6445 471.65 75.8845 471.27 77.5245H462.36C462.07 77.5245 461.84 77.7545 461.84 78.0445V86.9645C463.48 87.3345 464.78 89.0245 464.78 91.0345C464.78 93.0445 463.48 94.7245 461.84 95.1045V104.005C461.84 104.295 462.07 104.525 462.36 104.525H471.27Z" fill="white" stroke="white" stroke-width="1.85" stroke-miterlimit="10"/>
<path d="M251.541 227.085L249.141 225.815C249.081 225.525 249.011 225.235 248.941 224.955L250.541 222.755C251.381 221.585 251.381 220.015 250.541 218.855L248.041 215.375C247.201 214.205 245.721 213.705 244.341 214.125L241.751 214.925C241.501 214.765 241.251 214.605 241.001 214.455L240.571 211.775C240.341 210.355 239.231 209.245 237.811 209.005L233.591 208.305C232.161 208.065 230.751 208.765 230.081 210.045L228.811 212.445C228.521 212.505 228.231 212.575 227.951 212.645L225.751 211.045C224.581 210.205 223.011 210.205 221.851 211.045L220.261 212.185C220.091 211.885 219.881 211.605 219.601 211.385C220.021 210.485 219.941 209.405 219.341 208.585L218.431 207.315C217.831 206.485 216.851 206.065 215.861 206.175C215.521 205.235 214.701 204.535 213.701 204.375L212.151 204.115C211.151 203.955 210.151 204.355 209.541 205.125C208.641 204.705 207.561 204.785 206.741 205.385L205.461 206.305C204.641 206.905 204.221 207.885 204.331 208.865C203.401 209.205 202.701 210.015 202.531 211.025L202.281 212.555C202.111 213.555 202.501 214.555 203.291 215.185C202.961 215.885 202.951 216.675 203.231 217.385L202.941 217.335C201.651 217.125 200.361 217.765 199.761 218.915L199.181 220.015L198.171 219.285C197.101 218.515 195.671 218.515 194.621 219.285L192.331 220.925C191.271 221.695 190.811 223.045 191.201 224.295L191.571 225.485L190.341 225.685C189.041 225.885 188.021 226.905 187.811 228.195L187.351 230.975C187.141 232.265 187.771 233.545 188.931 234.155L190.031 234.735L189.301 235.745C188.531 236.805 188.531 238.235 189.301 239.295L190.931 241.575C191.691 242.645 193.051 243.095 194.311 242.715L195.501 242.345L195.701 243.585C195.911 244.875 196.921 245.885 198.211 246.105L200.981 246.565C201.151 246.595 201.321 246.605 201.481 246.605C202.591 246.605 203.631 245.995 204.171 244.985L204.751 243.885L205.771 244.625C206.831 245.395 208.261 245.395 209.331 244.625L211.611 242.985C212.681 242.225 213.141 240.865 212.751 239.615L212.381 238.405L213.481 238.225C213.551 238.755 213.751 239.275 214.071 239.725L216.571 243.205C217.411 244.375 218.901 244.875 220.271 244.455L222.861 243.655C223.111 243.815 223.361 243.975 223.611 244.125L224.041 246.805C224.271 248.225 225.381 249.345 226.801 249.575L231.021 250.275C231.211 250.305 231.391 250.325 231.571 250.325C232.791 250.325 233.931 249.655 234.521 248.545L235.811 246.095C236.071 246.045 236.341 245.985 236.601 245.925L238.861 247.565C240.031 248.405 241.601 248.405 242.761 247.565L246.241 245.075C247.411 244.235 247.921 242.745 247.491 241.365L246.671 238.705C246.811 238.475 246.951 238.245 247.091 238.015L249.821 237.575C251.251 237.345 252.361 236.245 252.601 234.815L253.301 230.595C253.541 229.175 252.841 227.765 251.561 227.085H251.541Z" fill="url(#paint49_linear_547_1570)" stroke="url(#paint50_linear_547_1570)" stroke-width="3.77" stroke-linecap="round" stroke-linejoin="round"/>
<path d="M211.542 230.725C211.462 230.065 211.312 229.425 211.092 228.805L212.602 226.715C212.752 226.515 212.752 226.245 212.602 226.045L210.962 223.765C210.822 223.565 210.562 223.475 210.322 223.545L207.862 224.305C207.342 223.905 206.782 223.555 206.182 223.265L205.772 220.715C205.732 220.465 205.542 220.275 205.292 220.235L202.522 219.775C202.272 219.735 202.032 219.855 201.922 220.075L200.722 222.355C200.062 222.435 199.422 222.585 198.792 222.805L196.702 221.295C196.502 221.145 196.232 221.145 196.032 221.295L193.752 222.935C193.552 223.075 193.462 223.335 193.532 223.575L194.292 226.035C193.892 226.555 193.542 227.115 193.252 227.715L190.702 228.125C190.462 228.165 190.262 228.355 190.222 228.605L189.762 231.375C189.722 231.615 189.842 231.865 190.062 231.975L192.342 233.175C192.422 233.835 192.572 234.475 192.792 235.095L191.282 237.185C191.132 237.385 191.132 237.655 191.282 237.855L192.922 240.135C193.062 240.335 193.322 240.425 193.562 240.355L196.022 239.595C196.542 239.995 197.102 240.345 197.702 240.635L198.112 243.185C198.152 243.435 198.342 243.625 198.592 243.665L201.362 244.125C201.612 244.165 201.852 244.045 201.962 243.825L203.172 241.525C203.612 241.445 204.462 241.295 205.092 241.105L207.192 242.625C207.392 242.775 207.662 242.775 207.862 242.625L210.142 240.985C210.342 240.845 210.432 240.585 210.352 240.345L209.592 237.865C209.972 237.335 210.392 236.585 210.612 236.185L213.182 235.775C213.422 235.735 213.622 235.545 213.662 235.295L214.122 232.525C214.162 232.285 214.042 232.035 213.822 231.925L211.542 230.725ZM205.582 237.015C202.792 239.015 198.892 238.375 196.892 235.585C194.892 232.795 195.532 228.895 198.332 226.895C201.122 224.895 205.022 225.535 207.022 228.325C209.022 231.115 208.382 235.015 205.592 237.015H205.582Z" stroke="white" stroke-width="1.54" stroke-miterlimit="10"/>
<path d="M206.141 213.965C206.191 214.325 206.271 214.685 206.391 215.025L205.551 216.185C205.471 216.295 205.471 216.445 205.551 216.555L206.461 217.815C206.541 217.925 206.681 217.975 206.811 217.935L208.171 217.515C208.461 217.735 208.771 217.935 209.101 218.095L209.331 219.505C209.351 219.645 209.461 219.745 209.591 219.765L211.121 220.015C211.261 220.035 211.391 219.975 211.451 219.845L212.121 218.575C212.361 218.535 212.841 218.445 213.181 218.345L214.341 219.185C214.451 219.265 214.601 219.265 214.711 219.185L215.971 218.275C216.081 218.195 216.131 218.055 216.091 217.925L215.671 216.555C215.881 216.265 216.111 215.845 216.231 215.625L217.651 215.395C217.791 215.375 217.891 215.265 217.911 215.135L218.161 213.605C218.181 213.465 218.121 213.335 217.991 213.275L216.731 212.605C216.681 212.245 216.601 211.885 216.481 211.545L217.321 210.385C217.401 210.275 217.401 210.125 217.321 210.015L216.411 208.755C216.331 208.645 216.191 208.595 216.061 208.635L214.701 209.055C214.411 208.835 214.101 208.635 213.771 208.475L213.541 207.065C213.521 206.925 213.411 206.825 213.281 206.805L211.751 206.555C211.611 206.535 211.481 206.595 211.421 206.725L210.751 207.985C210.391 208.035 210.031 208.115 209.691 208.235L208.531 207.395C208.421 207.315 208.271 207.315 208.161 207.395L206.901 208.305C206.791 208.385 206.741 208.525 206.781 208.655L207.201 210.015C206.981 210.305 206.781 210.615 206.621 210.945L205.211 211.165C205.081 211.185 204.971 211.295 204.951 211.425L204.701 212.955C204.681 213.095 204.741 213.225 204.871 213.285L206.131 213.955L206.141 213.965ZM209.441 210.485C210.981 209.375 213.141 209.735 214.251 211.275C215.361 212.815 215.001 214.975 213.461 216.085C211.921 217.195 209.761 216.835 208.651 215.295C207.541 213.755 207.901 211.595 209.441 210.485Z" fill="white"/>
<path d="M250.39 229.264L246.91 227.424C246.78 226.424 246.56 225.434 246.23 224.494L248.54 221.314C248.76 221.004 248.76 220.594 248.54 220.284L246.04 216.804C245.82 216.494 245.43 216.364 245.07 216.474L241.31 217.634C240.52 217.024 239.66 216.484 238.75 216.044L238.13 212.154C238.07 211.784 237.78 211.484 237.41 211.424L233.18 210.724C232.81 210.664 232.43 210.844 232.26 211.184L230.42 214.664C229.42 214.794 228.43 215.014 227.49 215.344L224.31 213.034C224 212.814 223.59 212.814 223.28 213.034L219.8 215.524C219.49 215.744 219.36 216.134 219.47 216.494L220.63 220.254C220.02 221.044 219.48 221.904 219.04 222.814L215.15 223.434C214.78 223.494 214.48 223.784 214.42 224.154L213.72 228.384C213.66 228.754 213.84 229.124 214.18 229.304L217.66 231.144C217.79 232.144 218.01 233.134 218.34 234.074L216.03 237.254C215.81 237.564 215.81 237.974 216.03 238.284L218.53 241.764C218.75 242.074 219.14 242.204 219.5 242.094L223.26 240.934C224.05 241.544 224.91 242.084 225.82 242.524L226.44 246.414C226.5 246.784 226.79 247.084 227.16 247.144L231.39 247.844C231.76 247.904 232.13 247.724 232.31 247.384L234.16 243.874C234.83 243.754 236.13 243.514 237.08 243.224L240.28 245.544C240.59 245.764 241 245.764 241.31 245.544L244.79 243.054C245.1 242.834 245.23 242.444 245.12 242.084L243.95 238.314C244.53 237.514 245.17 236.354 245.5 235.754L249.42 235.124C249.79 235.064 250.09 234.774 250.15 234.404L250.85 230.174C250.91 229.804 250.73 229.434 250.39 229.254V229.264ZM237.83 237.014C233.57 240.064 227.63 239.084 224.58 234.824C221.53 230.574 222.51 224.624 226.77 221.574C231.02 218.524 236.97 219.504 240.02 223.764C243.07 228.024 242.09 233.964 237.83 237.014Z" fill="white"/>
<path d="M598.861 411.835C598.001 411.155 596.851 411.005 595.851 411.435L580.931 417.885C580.931 417.885 580.811 417.945 580.761 417.965C580.681 418.005 580.601 418.055 580.521 418.105C580.441 418.155 580.371 418.205 580.271 418.285C580.241 418.305 580.141 418.395 580.111 418.415C580.021 418.495 579.931 418.585 579.891 418.635C579.851 418.685 579.811 418.725 579.771 418.775L558.751 445.305C557.961 446.295 557.901 447.685 558.581 448.755C560.211 451.285 562.191 453.475 564.451 455.265C566.711 457.055 569.301 458.485 572.131 459.495C572.461 459.615 572.791 459.665 573.131 459.665C574.021 459.665 574.881 459.265 575.451 458.545L596.521 431.955C596.521 431.955 596.571 431.885 596.591 431.845C596.631 431.785 596.681 431.715 596.731 431.625C596.781 431.535 596.821 431.445 596.841 431.415C596.871 431.355 596.921 431.215 596.941 431.155C596.971 431.065 597.001 430.975 597.021 430.875C597.041 430.815 597.051 430.755 597.061 430.695L599.931 414.685C600.121 413.605 599.711 412.525 598.851 411.845L598.861 411.835Z" fill="url(#paint51_linear_547_1570)" stroke="url(#paint52_linear_547_1570)" stroke-width="3.06" stroke-linecap="round" stroke-linejoin="round"/>
<path d="M594.991 430.646C594.991 430.646 595.021 430.596 595.031 430.566C595.041 430.536 595.051 430.506 595.061 430.476C595.071 430.446 595.081 430.406 595.091 430.376C595.091 430.366 595.091 430.346 595.101 430.336L597.971 414.326C598.031 413.976 597.901 413.626 597.621 413.406C597.341 413.186 596.971 413.136 596.641 413.276L581.711 419.726C581.711 419.726 581.691 419.736 581.671 419.746C581.641 419.756 581.611 419.776 581.581 419.796C581.551 419.816 581.531 419.826 581.501 419.846C581.481 419.866 581.451 419.886 581.431 419.906C581.401 419.926 581.381 419.956 581.361 419.986C581.361 419.996 581.341 420.006 581.331 420.016L560.311 446.546C560.051 446.866 560.031 447.316 560.261 447.666C561.781 450.026 563.601 452.036 565.691 453.696C567.791 455.356 570.161 456.666 572.801 457.606C573.191 457.746 573.621 457.616 573.881 457.296L594.901 430.766C594.901 430.766 594.911 430.746 594.921 430.736C594.941 430.706 594.961 430.676 594.981 430.646H594.991Z" stroke="white" stroke-width="1.54" stroke-miterlimit="10"/>
<path d="M564.33 441.484L577.72 452.454" stroke="white" stroke-width="1.54" stroke-miterlimit="10"/>
<path d="M566.221 439.225L579.611 450.195" stroke="white" stroke-width="1.54" stroke-miterlimit="10"/>
<path d="M581.441 419.914L594.931 430.724" stroke="white" stroke-width="1.54" stroke-miterlimit="10"/>
<path d="M593.43 414.664L597.36 417.724L597.62 413.404L593.43 414.664Z" fill="white" stroke="white" stroke-width="1.54" stroke-linecap="round" stroke-linejoin="round"/>
<path d="M569.34 441.775L584.53 422.385" stroke="white" stroke-width="1.54" stroke-miterlimit="10"/>
<path d="M574.541 445.945L589.731 426.545" stroke="white" stroke-width="1.54" stroke-miterlimit="10"/>
<path d="M354.96 437.674L354.27 437.534C352.94 437.264 351.26 436.694 350.74 435.494C350.62 435.224 350.4 435.024 350.12 434.934C349.84 434.844 349.54 434.884 349.3 435.034C347.22 436.314 344.99 436.314 342.91 435.034C342.67 434.884 342.37 434.844 342.1 434.934C341.83 435.014 341.6 435.214 341.48 435.464C341.04 436.414 339.78 437.104 337.74 437.514L337.05 437.654C331.02 438.874 324.18 440.254 324.08 451.434C324.08 451.794 324.26 452.124 324.57 452.304C326.32 453.344 331.92 455.774 346.1 455.774C360.28 455.774 365.81 453.094 367.5 451.944C367.78 451.754 367.94 451.434 367.94 451.094C367.7 440.224 360.94 438.854 354.97 437.654L354.96 437.674Z" fill="url(#paint53_linear_547_1570)" stroke="url(#paint54_linear_547_1570)" stroke-width="3.06" stroke-linecap="round" stroke-linejoin="round"/>
<path d="M346.091 435.625C347.911 435.625 349.731 434.615 351.391 432.655C351.461 432.565 351.521 432.495 351.601 432.405C354.131 429.245 355.711 424.405 355.711 419.785C355.711 412.855 351.931 408.365 346.091 408.365C340.251 408.365 336.471 412.845 336.471 419.785C336.471 427.925 341.141 435.625 346.091 435.625Z" fill="url(#paint55_linear_547_1570)" stroke="url(#paint56_linear_547_1570)" stroke-width="3.06" stroke-linecap="round" stroke-linejoin="round"/>
<path d="M337.47 419.785C337.47 413.455 340.85 409.365 346.09 409.365C351.33 409.365 354.71 413.455 354.71 419.785C354.71 424.405 353.08 428.965 350.82 431.785C350.76 431.855 350.69 431.935 350.6 432.045C349.24 433.645 347.67 434.625 346.09 434.625C341.74 434.625 337.47 427.275 337.47 419.785ZM346.09 454.795C331.83 454.795 326.45 452.285 325.07 451.465C325.16 441.085 331.31 439.855 337.25 438.655L337.94 438.515C340.34 438.025 341.79 437.165 342.38 435.905C343.53 436.605 344.77 437.005 346.09 437.005C347.41 437.005 348.67 436.595 349.82 435.885C350.37 437.155 351.79 438.035 354.07 438.505L354.76 438.645C360.64 439.825 366.71 441.055 366.93 451.125C365.63 452.005 360.41 454.785 346.09 454.785V454.795Z" stroke="white" stroke-width="1.54" stroke-miterlimit="10"/>
<defs>
<linearGradient id="paint0_linear_547_1570" x1="462.026" y1="154.406" x2="462.026" y2="27.2461" gradientUnits="userSpaceOnUse">
<stop stop-color="#55A2C3"/>
<stop offset="1" stop-color="#152A54"/>
</linearGradient>
<linearGradient id="paint1_linear_547_1570" x1="698.165" y1="289.896" x2="698.165" y2="162.746" gradientUnits="userSpaceOnUse">
<stop stop-color="#55A2C3"/>
<stop offset="1" stop-color="#152A54"/>
</linearGradient>
<linearGradient id="paint2_linear_547_1570" x1="580.626" y1="89.3162" x2="580.626" y2="-37.8438" gradientUnits="userSpaceOnUse">
<stop stop-color="#55A2C3"/>
<stop offset="1" stop-color="#152A54"/>
</linearGradient>
<linearGradient id="paint3_linear_547_1570" x1="698.165" y1="153.226" x2="698.165" y2="26.0664" gradientUnits="userSpaceOnUse">
<stop stop-color="#55A2C3"/>
<stop offset="1" stop-color="#152A54"/>
</linearGradient>
<linearGradient id="paint4_linear_547_1570" x1="580.626" y1="495.425" x2="580.626" y2="368.275" gradientUnits="userSpaceOnUse">
<stop stop-color="#55A2C3"/>
<stop offset="1" stop-color="#152A54"/>
</linearGradient>
<linearGradient id="paint5_linear_547_1570" x1="221.345" y1="289.896" x2="221.345" y2="162.746" gradientUnits="userSpaceOnUse">
<stop stop-color="#55A2C3"/>
<stop offset="1" stop-color="#152A54"/>
</linearGradient>
<linearGradient id="paint6_linear_547_1570" x1="221.345" y1="567.806" x2="221.345" y2="440.656" gradientUnits="userSpaceOnUse">
<stop stop-color="#55A2C3"/>
<stop offset="1" stop-color="#152A54"/>
</linearGradient>
<linearGradient id="paint7_linear_547_1570" x1="462.026" y1="563.605" x2="462.026" y2="436.445" gradientUnits="userSpaceOnUse">
<stop stop-color="#55A2C3"/>
<stop offset="1" stop-color="#152A54"/>
</linearGradient>
<linearGradient id="paint8_linear_547_1570" x1="580.626" y1="358.047" x2="580.626" y2="230.887" gradientUnits="userSpaceOnUse">
<stop stop-color="#55A2C3"/>
<stop offset="1" stop-color="#152A54"/>
</linearGradient>
<linearGradient id="paint9_linear_547_1570" x1="698.165" y1="567.095" x2="698.165" y2="439.945" gradientUnits="userSpaceOnUse">
<stop stop-color="#55A2C3"/>
<stop offset="1" stop-color="#152A54"/>
</linearGradient>
<linearGradient id="paint10_linear_547_1570" x1="343.431" y1="497.355" x2="343.431" y2="370.195" gradientUnits="userSpaceOnUse">
<stop stop-color="#55A2C3"/>
<stop offset="1" stop-color="#152A54"/>
</linearGradient>
<linearGradient id="paint11_linear_547_1570" x1="103.726" y1="497.355" x2="103.726" y2="370.195" gradientUnits="userSpaceOnUse">
<stop stop-color="#55A2C3"/>
<stop offset="1" stop-color="#152A54"/>
</linearGradient>
<linearGradient id="paint12_linear_547_1570" x1="342.091" y1="174.016" x2="342.091" y2="175.016" gradientUnits="userSpaceOnUse">
<stop stop-color="#395D6B"/>
<stop offset="1" stop-color="#6FB6D1"/>
</linearGradient>
<linearGradient id="paint13_linear_547_1570" x1="342.091" y1="176.105" x2="342.091" y2="177.915" gradientUnits="userSpaceOnUse">
<stop stop-color="#395D6B"/>
<stop offset="1" stop-color="#6FB6D1"/>
</linearGradient>
<linearGradient id="paint14_linear_547_1570" x1="342.091" y1="178.625" x2="342.091" y2="180.435" gradientUnits="userSpaceOnUse">
<stop stop-color="#395D6B"/>
<stop offset="1" stop-color="#6FB6D1"/>
</linearGradient>
<linearGradient id="paint15_linear_547_1570" x1="342.091" y1="181.135" x2="342.091" y2="182.945" gradientUnits="userSpaceOnUse">
<stop stop-color="#395D6B"/>
<stop offset="1" stop-color="#6FB6D1"/>
</linearGradient>
<linearGradient id="paint16_linear_547_1570" x1="341.821" y1="183.654" x2="341.821" y2="185.404" gradientUnits="userSpaceOnUse">
<stop stop-color="#395D6B"/>
<stop offset="1" stop-color="#6FB6D1"/>
</linearGradient>
<linearGradient id="paint17_linear_547_1570" x1="341.605" y1="186.266" x2="341.605" y2="187.776" gradientUnits="userSpaceOnUse">
<stop stop-color="#395D6B"/>
<stop offset="1" stop-color="#6FB6D1"/>
</linearGradient>
<linearGradient id="paint18_linear_547_1570" x1="341.34" y1="189.016" x2="341.34" y2="190.006" gradientUnits="userSpaceOnUse">
<stop stop-color="#395D6B"/>
<stop offset="1" stop-color="#6FB6D1"/>
</linearGradient>
<linearGradient id="paint19_linear_547_1570" x1="342.091" y1="160.205" x2="342.091" y2="174.015" gradientUnits="userSpaceOnUse">
<stop stop-color="#395D6B"/>
<stop offset="1" stop-color="#6FB6D1"/>
</linearGradient>
<linearGradient id="paint20_linear_547_1570" x1="342.59" y1="162.484" x2="342.59" y2="174.014" gradientUnits="userSpaceOnUse">
<stop stop-color="#395D6B"/>
<stop offset="1" stop-color="#6FB6D1"/>
</linearGradient>
<linearGradient id="paint21_linear_547_1570" x1="342.09" y1="149.691" x2="342.09" y2="163.556" gradientUnits="userSpaceOnUse">
<stop stop-color="#395D6B"/>
<stop offset="1" stop-color="#6FB6D1"/>
</linearGradient>
<linearGradient id="paint22_linear_547_1570" x1="459.482" y1="220.334" x2="459.482" y2="250.314" gradientUnits="userSpaceOnUse">
<stop stop-color="#395D6B"/>
<stop offset="1" stop-color="#6FB6D1"/>
</linearGradient>
<linearGradient id="paint23_linear_547_1570" x1="222.46" y1="351.586" x2="222.46" y2="383.304" gradientUnits="userSpaceOnUse">
<stop stop-color="#395D6B"/>
<stop offset="1" stop-color="#6FB6D1"/>
</linearGradient>
<linearGradient id="paint24_linear_547_1570" x1="230.721" y1="361.664" x2="230.721" y2="368.554" gradientUnits="userSpaceOnUse">
<stop stop-color="#395D6B"/>
<stop offset="1" stop-color="#6FB6D1"/>
</linearGradient>
<linearGradient id="paint25_linear_547_1570" x1="228.776" y1="356.125" x2="228.776" y2="365.735" gradientUnits="userSpaceOnUse">
<stop stop-color="#395D6B"/>
<stop offset="1" stop-color="#6FB6D1"/>
</linearGradient>
<linearGradient id="paint26_linear_547_1570" x1="225.015" y1="355.625" x2="225.015" y2="362.565" gradientUnits="userSpaceOnUse">
<stop stop-color="#395D6B"/>
<stop offset="1" stop-color="#6FB6D1"/>
</linearGradient>
<linearGradient id="paint27_linear_547_1570" x1="344.07" y1="268.625" x2="344.07" y2="302.465" gradientUnits="userSpaceOnUse">
<stop stop-color="#395D6B"/>
<stop offset="1" stop-color="#6FB6D1"/>
</linearGradient>
<linearGradient id="paint28_linear_547_1570" x1="344.07" y1="275.545" x2="344.07" y2="295.545" gradientUnits="userSpaceOnUse">
<stop stop-color="#395D6B"/>
<stop offset="1" stop-color="#6FB6D1"/>
</linearGradient>
<linearGradient id="paint29_linear_547_1570" x1="351.636" y1="297.926" x2="351.636" y2="323.026" gradientUnits="userSpaceOnUse">
<stop stop-color="#395D6B"/>
<stop offset="1" stop-color="#6FB6D1"/>
</linearGradient>
<linearGradient id="paint30_linear_547_1570" x1="333.03" y1="297.926" x2="333.03" y2="323.026" gradientUnits="userSpaceOnUse">
<stop stop-color="#395D6B"/>
<stop offset="1" stop-color="#6FB6D1"/>
</linearGradient>
<linearGradient id="paint31_linear_547_1570" x1="479.016" y1="370.525" x2="479.016" y2="380.235" gradientUnits="userSpaceOnUse">
<stop stop-color="#395D6B"/>
<stop offset="1" stop-color="#6FB6D1"/>
</linearGradient>
<linearGradient id="paint32_linear_547_1570" x1="439.955" y1="370.525" x2="439.955" y2="380.235" gradientUnits="userSpaceOnUse">
<stop stop-color="#395D6B"/>
<stop offset="1" stop-color="#6FB6D1"/>
</linearGradient>
<linearGradient id="paint33_linear_547_1570" x1="439.945" y1="348.215" x2="439.945" y2="370.525" gradientUnits="userSpaceOnUse">
<stop stop-color="#395D6B"/>
<stop offset="1" stop-color="#6FB6D1"/>
</linearGradient>
<linearGradient id="paint34_linear_547_1570" x1="479.011" y1="348.215" x2="479.011" y2="370.525" gradientUnits="userSpaceOnUse">
<stop stop-color="#395D6B"/>
<stop offset="1" stop-color="#6FB6D1"/>
</linearGradient>
<linearGradient id="paint35_linear_547_1570" x1="459.481" y1="348.215" x2="459.481" y2="349.215" gradientUnits="userSpaceOnUse">
<stop stop-color="#395D6B"/>
<stop offset="1" stop-color="#6FB6D1"/>
</linearGradient>
<linearGradient id="paint36_linear_547_1570" x1="459.98" y1="348.215" x2="459.98" y2="387.445" gradientUnits="userSpaceOnUse">
<stop stop-color="#395D6B"/>
<stop offset="1" stop-color="#6FB6D1"/>
</linearGradient>
<linearGradient id="paint37_linear_547_1570" x1="459.476" y1="387.445" x2="459.476" y2="388.445" gradientUnits="userSpaceOnUse">
<stop stop-color="#395D6B"/>
<stop offset="1" stop-color="#6FB6D1"/>
</linearGradient>
<linearGradient id="paint38_linear_547_1570" x1="459.48" y1="342.164" x2="459.48" y2="348.444" gradientUnits="userSpaceOnUse">
<stop stop-color="#395D6B"/>
<stop offset="1" stop-color="#6FB6D1"/>
</linearGradient>
<linearGradient id="paint39_linear_547_1570" x1="569.961" y1="144.436" x2="569.961" y2="168.496" gradientUnits="userSpaceOnUse">
<stop stop-color="#395D6B"/>
<stop offset="1" stop-color="#6FB6D1"/>
</linearGradient>
<linearGradient id="paint40_linear_547_1570" x1="587.39" y1="144.426" x2="587.39" y2="147.476" gradientUnits="userSpaceOnUse">
<stop stop-color="#395D6B"/>
<stop offset="1" stop-color="#6FB6D1"/>
</linearGradient>
<linearGradient id="paint41_linear_547_1570" x1="581.67" y1="157.715" x2="581.67" y2="182.925" gradientUnits="userSpaceOnUse">
<stop stop-color="#395D6B"/>
<stop offset="1" stop-color="#6FB6D1"/>
</linearGradient>
<linearGradient id="paint42_linear_547_1570" x1="568.875" y1="165.225" x2="568.875" y2="174.975" gradientUnits="userSpaceOnUse">
<stop stop-color="#395D6B"/>
<stop offset="1" stop-color="#6FB6D1"/>
</linearGradient>
<linearGradient id="paint43_linear_547_1570" x1="573.011" y1="168.494" x2="573.011" y2="180.574" gradientUnits="userSpaceOnUse">
<stop stop-color="#395D6B"/>
<stop offset="1" stop-color="#6FB6D1"/>
</linearGradient>
<linearGradient id="paint44_linear_547_1570" x1="577.951" y1="171.895" x2="577.951" y2="180.905" gradientUnits="userSpaceOnUse">
<stop stop-color="#395D6B"/>
<stop offset="1" stop-color="#6FB6D1"/>
</linearGradient>
<linearGradient id="paint45_linear_547_1570" x1="583.035" y1="271.355" x2="583.035" y2="309.035" gradientUnits="userSpaceOnUse">
<stop stop-color="#395D6B"/>
<stop offset="1" stop-color="#6FB6D1"/>
</linearGradient>
<linearGradient id="paint46_linear_547_1570" x1="583.035" y1="271.355" x2="583.035" y2="309.035" gradientUnits="userSpaceOnUse">
<stop stop-color="#395D6B"/>
<stop offset="1" stop-color="#6FB6D1"/>
</linearGradient>
<linearGradient id="paint47_linear_547_1570" x1="460.481" y1="72.7949" x2="460.481" y2="109.255" gradientUnits="userSpaceOnUse">
<stop stop-color="#395D6B"/>
<stop offset="1" stop-color="#6FB6D1"/>
</linearGradient>
<linearGradient id="paint48_linear_547_1570" x1="460.481" y1="72.7949" x2="460.481" y2="109.255" gradientUnits="userSpaceOnUse">
<stop stop-color="#395D6B"/>
<stop offset="1" stop-color="#6FB6D1"/>
</linearGradient>
<linearGradient id="paint49_linear_547_1570" x1="220.329" y1="204.08" x2="220.329" y2="250.325" gradientUnits="userSpaceOnUse">
<stop stop-color="#395D6B"/>
<stop offset="1" stop-color="#6FB6D1"/>
</linearGradient>
<linearGradient id="paint50_linear_547_1570" x1="220.329" y1="204.08" x2="220.329" y2="250.325" gradientUnits="userSpaceOnUse">
<stop stop-color="#395D6B"/>
<stop offset="1" stop-color="#6FB6D1"/>
</linearGradient>
<linearGradient id="paint51_linear_547_1570" x1="579.044" y1="411.193" x2="579.044" y2="459.665" gradientUnits="userSpaceOnUse">
<stop stop-color="#395D6B"/>
<stop offset="1" stop-color="#6FB6D1"/>
</linearGradient>
<linearGradient id="paint52_linear_547_1570" x1="579.044" y1="411.193" x2="579.044" y2="459.665" gradientUnits="userSpaceOnUse">
<stop stop-color="#395D6B"/>
<stop offset="1" stop-color="#6FB6D1"/>
</linearGradient>
<linearGradient id="paint53_linear_547_1570" x1="346.01" y1="434.887" x2="346.01" y2="455.774" gradientUnits="userSpaceOnUse">
<stop stop-color="#395D6B"/>
<stop offset="1" stop-color="#6FB6D1"/>
</linearGradient>
<linearGradient id="paint54_linear_547_1570" x1="346.01" y1="434.887" x2="346.01" y2="455.774" gradientUnits="userSpaceOnUse">
<stop stop-color="#395D6B"/>
<stop offset="1" stop-color="#6FB6D1"/>
</linearGradient>
<linearGradient id="paint55_linear_547_1570" x1="346.091" y1="408.365" x2="346.091" y2="435.625" gradientUnits="userSpaceOnUse">
<stop stop-color="#395D6B"/>
<stop offset="1" stop-color="#6FB6D1"/>
</linearGradient>
<linearGradient id="paint56_linear_547_1570" x1="346.091" y1="408.365" x2="346.091" y2="435.625" gradientUnits="userSpaceOnUse">
<stop stop-color="#395D6B"/>
<stop offset="1" stop-color="#6FB6D1"/>
</linearGradient>
</defs>
</svg>
