<svg width="32" height="32" viewBox="0 0 32 32" fill="none" xmlns="http://www.w3.org/2000/svg">
<g id="arrow_left" clip-path="url(#clip0_1953_2038)">
<g id="elements">
<path id="Vector (Stroke)" fill-rule="evenodd" clip-rule="evenodd" d="M24 16.7497L9.00002 16.75C8.58581 16.75 8.25002 16.4142 8.25001 16C8.25001 15.5858 8.58579 15.25 9 15.25L24 15.2497C24.4142 15.2497 24.75 15.5855 24.75 15.9997C24.75 16.4139 24.4143 16.7497 24 16.7497Z" fill="white"/>
<path id="Vector 6908 (Stroke)" fill-rule="evenodd" clip-rule="evenodd" d="M13.5303 10.4697C13.8231 10.7626 13.8231 11.2374 13.5303 11.5303L9.23736 15.8232C9.1673 15.8933 9.11054 15.9501 9.06222 16C9.11054 16.0499 9.1673 16.1067 9.23736 16.1768L13.5303 20.4697C13.8231 20.7626 13.8231 21.2374 13.5303 21.5303C13.2374 21.8232 12.7625 21.8232 12.4696 21.5303L8.1767 17.2374C8.16862 17.2294 8.1605 17.2212 8.15234 17.2131C8.00724 17.0681 7.85035 16.9113 7.73577 16.7612C7.60153 16.5852 7.45703 16.3335 7.45703 16C7.45703 15.6665 7.60153 15.4148 7.73576 15.2388C7.85035 15.0887 8.00724 14.9319 8.15234 14.7869C8.1605 14.7788 8.16862 14.7706 8.1767 14.7626L12.4696 10.4697C12.7625 10.1768 13.2374 10.1768 13.5303 10.4697Z" fill="white"/>
</g>
</g>
<defs>
<clipPath id="clip0_1953_2038">
<rect width="32" height="32" fill="white"/>
</clipPath>
</defs>
</svg>
