<svg width="32" height="32" viewBox="0 0 32 32" fill="none" xmlns="http://www.w3.org/2000/svg">
<g id="arrow_right" clip-path="url(#clip0_1953_2046)">
<g id="elements">
<path id="Vector (Stroke)" fill-rule="evenodd" clip-rule="evenodd" d="M7.99996 16.7497L23 16.75C23.4142 16.75 23.75 16.4142 23.75 16C23.75 15.5858 23.4142 15.25 23 15.25L7.99998 15.2497C7.58577 15.2497 7.24998 15.5855 7.24997 15.9997C7.24996 16.4139 7.58575 16.7497 7.99996 16.7497Z" fill="white"/>
<path id="Vector 6908 (Stroke)" fill-rule="evenodd" clip-rule="evenodd" d="M18.4697 10.4697C18.1769 10.7626 18.1769 11.2374 18.4697 11.5303L22.7626 15.8232C22.8327 15.8933 22.8895 15.9501 22.9378 16C22.8895 16.0499 22.8327 16.1067 22.7626 16.1768L18.4697 20.4697C18.1769 20.7626 18.1769 21.2374 18.4697 21.5303C18.7626 21.8232 19.2375 21.8232 19.5304 21.5303L23.8233 17.2374C23.8314 17.2294 23.8395 17.2212 23.8477 17.2131C23.9928 17.0681 24.1497 16.9113 24.2642 16.7612C24.3985 16.5852 24.543 16.3335 24.543 16C24.543 15.6665 24.3985 15.4148 24.2642 15.2388C24.1497 15.0887 23.9928 14.9319 23.8477 14.7869C23.8395 14.7788 23.8314 14.7706 23.8233 14.7626L19.5304 10.4697C19.2375 10.1768 18.7626 10.1768 18.4697 10.4697Z" fill="white"/>
</g>
</g>
<defs>
<clipPath id="clip0_1953_2046">
<rect width="32" height="32" fill="white"/>
</clipPath>
</defs>
</svg>
