<svg width="32" height="32" viewBox="0 0 32 32" fill="none" xmlns="http://www.w3.org/2000/svg">
<g id="moon" clip-path="url(#clip0_1942_1980)">
<path id="Path (Stroke)" fill-rule="evenodd" clip-rule="evenodd" d="M14.1805 7.848C10.6386 8.42027 7.80603 11.2551 7.32353 14.9134C6.78238 19.0165 9.36496 22.8856 13.3618 23.9596C16.8059 24.885 20.3817 23.4882 22.321 20.6387C19.1245 21.1589 15.8388 19.7526 14.0385 16.9236C12.2385 14.0948 12.3559 10.5233 14.1805 7.848ZM15.6101 6.25019H15.8935C16.2019 6.25019 16.4788 6.43893 16.5916 6.72593C16.7043 7.01294 16.6299 7.33971 16.4041 7.54961C14.0183 9.76646 13.5556 13.3707 15.304 16.1183C17.0524 18.8659 20.5134 19.9733 23.5321 18.751C23.8124 18.6375 24.1334 18.7035 24.3463 18.9183C24.5591 19.1331 24.6222 19.4548 24.5061 19.734C22.629 24.2506 17.6961 26.6774 12.9725 25.4082C8.249 24.1389 5.19686 19.5664 5.83641 14.7173C6.47596 9.8682 10.6093 6.24337 15.5003 6.24219C15.5372 6.24218 15.5741 6.24488 15.6101 6.25019Z" fill="white"/>
</g>
<defs>
<clipPath id="clip0_1942_1980">
<rect width="32" height="32" fill="white"/>
</clipPath>
</defs>
</svg>
