<svg width="32" height="32" viewBox="0 0 32 32" fill="none" xmlns="http://www.w3.org/2000/svg">
<g id="mouse" clip-path="url(#clip0_1953_2054)">
<path id="Rectangle (Stroke)" fill-rule="evenodd" clip-rule="evenodd" d="M9.25 13C9.25 9.27208 12.2721 6.25 16 6.25C19.7279 6.25 22.75 9.27208 22.75 13V19C22.75 22.7279 19.7279 25.75 16 25.75C12.2721 25.75 9.25 22.7279 9.25 19V13ZM16 7.75C13.1005 7.75 10.75 10.1005 10.75 13V19C10.75 21.8995 13.1005 24.25 16 24.25C18.8995 24.25 21.25 21.8995 21.25 19V13C21.25 10.1005 18.8995 7.75 16 7.75Z" fill="white"/>
<g id="Path (Stroke)">
<path fill-rule="evenodd" clip-rule="evenodd" d="M16 10.25C16.4142 10.25 16.75 10.5858 16.75 11V15C16.75 15.4142 16.4142 15.75 16 15.75C15.5858 15.75 15.25 15.4142 15.25 15V11C15.25 10.5858 15.5858 10.25 16 10.25Z" fill="white"/>
<path fill-rule="evenodd" clip-rule="evenodd" d="M16 10.25C16.4142 10.25 16.75 10.5858 16.75 11V15C16.75 15.4142 16.4142 15.75 16 15.75C15.5858 15.75 15.25 15.4142 15.25 15V11C15.25 10.5858 15.5858 10.25 16 10.25Z" fill="white" fill-opacity="0.2"/>
</g>
</g>
<defs>
<clipPath id="clip0_1953_2054">
<rect width="32" height="32" fill="white"/>
</clipPath>
</defs>
</svg>
