<svg width="32" height="32" viewBox="0 0 32 32" fill="none" xmlns="http://www.w3.org/2000/svg">
<g id="sun" clip-path="url(#clip0_1969_2161)">
<g id="Group 1820548759">
<g id="Oval (Stroke)">
<path fill-rule="evenodd" clip-rule="evenodd" d="M16 12.75C14.2051 12.75 12.75 14.2051 12.75 16C12.75 17.7949 14.2051 19.25 16 19.25C17.7949 19.25 19.25 17.7949 19.25 16C19.25 14.2051 17.7949 12.75 16 12.75ZM11.25 16C11.25 13.3766 13.3766 11.25 16 11.25C18.6234 11.25 20.75 13.3766 20.75 16C20.75 18.6234 18.6234 20.75 16 20.75C13.3766 20.75 11.25 18.6234 11.25 16Z" fill="white"/>
<path fill-rule="evenodd" clip-rule="evenodd" d="M16 12.75C14.2051 12.75 12.75 14.2051 12.75 16C12.75 17.7949 14.2051 19.25 16 19.25C17.7949 19.25 19.25 17.7949 19.25 16C19.25 14.2051 17.7949 12.75 16 12.75ZM11.25 16C11.25 13.3766 13.3766 11.25 16 11.25C18.6234 11.25 20.75 13.3766 20.75 16C20.75 18.6234 18.6234 20.75 16 20.75C13.3766 20.75 11.25 18.6234 11.25 16Z" fill="white" fill-opacity="0.2"/>
</g>
<g id="Shape (Stroke)">
<path fill-rule="evenodd" clip-rule="evenodd" d="M16 6.25C16.4142 6.25 16.75 6.58579 16.75 7V8C16.75 8.41421 16.4142 8.75 16 8.75C15.5858 8.75 15.25 8.41421 15.25 8V7C15.25 6.58579 15.5858 6.25 16 6.25ZM9.06962 9.06962C9.36251 8.77673 9.83739 8.77673 10.1303 9.06962L10.8303 9.76962C11.1232 10.0625 11.1232 10.5374 10.8303 10.8303C10.5374 11.1232 10.0625 11.1232 9.76962 10.8303L9.06962 10.1303C8.77673 9.83739 8.77673 9.36251 9.06962 9.06962ZM22.9304 9.06962C23.2233 9.36251 23.2233 9.83739 22.9304 10.1303L22.2304 10.8303C21.9375 11.1232 21.4626 11.1232 21.1697 10.8303C20.8768 10.5374 20.8768 10.0625 21.1697 9.76962L21.8697 9.06962C22.1626 8.77673 22.6375 8.77673 22.9304 9.06962ZM6.25 16C6.25 15.5858 6.58579 15.25 7 15.25H8C8.41421 15.25 8.75 15.5858 8.75 16C8.75 16.4142 8.41421 16.75 8 16.75H7C6.58579 16.75 6.25 16.4142 6.25 16ZM23.25 16C23.25 15.5858 23.5858 15.25 24 15.25H25C25.4142 15.25 25.75 15.5858 25.75 16C25.75 16.4142 25.4142 16.75 25 16.75H24C23.5858 16.75 23.25 16.4142 23.25 16ZM10.8303 21.1697C11.1232 21.4626 11.1232 21.9375 10.8303 22.2304L10.1303 22.9304C9.83739 23.2233 9.36251 23.2233 9.06962 22.9304C8.77673 22.6375 8.77673 22.1626 9.06962 21.8697L9.76962 21.1697C10.0625 20.8768 10.5374 20.8768 10.8303 21.1697ZM21.1697 21.1697C21.4626 20.8768 21.9375 20.8768 22.2304 21.1697L22.9304 21.8697C23.2233 22.1626 23.2233 22.6375 22.9304 22.9304C22.6375 23.2233 22.1626 23.2233 21.8697 22.9304L21.1697 22.2304C20.8768 21.9375 20.8768 21.4626 21.1697 21.1697ZM16 23.25C16.4142 23.25 16.75 23.5858 16.75 24V25C16.75 25.4142 16.4142 25.75 16 25.75C15.5858 25.75 15.25 25.4142 15.25 25V24C15.25 23.5858 15.5858 23.25 16 23.25Z" fill="white"/>
<path fill-rule="evenodd" clip-rule="evenodd" d="M16 6.25C16.4142 6.25 16.75 6.58579 16.75 7V8C16.75 8.41421 16.4142 8.75 16 8.75C15.5858 8.75 15.25 8.41421 15.25 8V7C15.25 6.58579 15.5858 6.25 16 6.25ZM9.06962 9.06962C9.36251 8.77673 9.83739 8.77673 10.1303 9.06962L10.8303 9.76962C11.1232 10.0625 11.1232 10.5374 10.8303 10.8303C10.5374 11.1232 10.0625 11.1232 9.76962 10.8303L9.06962 10.1303C8.77673 9.83739 8.77673 9.36251 9.06962 9.06962ZM22.9304 9.06962C23.2233 9.36251 23.2233 9.83739 22.9304 10.1303L22.2304 10.8303C21.9375 11.1232 21.4626 11.1232 21.1697 10.8303C20.8768 10.5374 20.8768 10.0625 21.1697 9.76962L21.8697 9.06962C22.1626 8.77673 22.6375 8.77673 22.9304 9.06962ZM6.25 16C6.25 15.5858 6.58579 15.25 7 15.25H8C8.41421 15.25 8.75 15.5858 8.75 16C8.75 16.4142 8.41421 16.75 8 16.75H7C6.58579 16.75 6.25 16.4142 6.25 16ZM23.25 16C23.25 15.5858 23.5858 15.25 24 15.25H25C25.4142 15.25 25.75 15.5858 25.75 16C25.75 16.4142 25.4142 16.75 25 16.75H24C23.5858 16.75 23.25 16.4142 23.25 16ZM10.8303 21.1697C11.1232 21.4626 11.1232 21.9375 10.8303 22.2304L10.1303 22.9304C9.83739 23.2233 9.36251 23.2233 9.06962 22.9304C8.77673 22.6375 8.77673 22.1626 9.06962 21.8697L9.76962 21.1697C10.0625 20.8768 10.5374 20.8768 10.8303 21.1697ZM21.1697 21.1697C21.4626 20.8768 21.9375 20.8768 22.2304 21.1697L22.9304 21.8697C23.2233 22.1626 23.2233 22.6375 22.9304 22.9304C22.6375 23.2233 22.1626 23.2233 21.8697 22.9304L21.1697 22.2304C20.8768 21.9375 20.8768 21.4626 21.1697 21.1697ZM16 23.25C16.4142 23.25 16.75 23.5858 16.75 24V25C16.75 25.4142 16.4142 25.75 16 25.75C15.5858 25.75 15.25 25.4142 15.25 25V24C15.25 23.5858 15.5858 23.25 16 23.25Z" fill="white" fill-opacity="0.2"/>
</g>
</g>
</g>
<defs>
<clipPath id="clip0_1969_2161">
<rect width="32" height="32" fill="white"/>
</clipPath>
</defs>
</svg>
